<svg width="60" height="60" viewBox="0 0 60 60" fill="none" xmlns="http://www.w3.org/2000/svg">
<path d="M35.022 31.9197C34.8339 31.1875 33.0882 29.2575 32.472 28.6804C29.0072 25.4352 24.0424 23.8694 19.3641 24.8199C17.6102 25.1762 18.1655 25.322 16.8701 23.9693L10.7972 17.5551C9.27674 15.9579 8.58203 15.5959 10.5842 13.9623L16.6135 9.12082C19.9864 6.39624 18.9111 6.48301 23.1761 6.48987L46.6525 6.48937C47.5417 6.4889 48.6982 6.43017 49.5549 6.51308C51.1041 6.66303 50.6784 8.95168 50.6757 10.0357L50.6781 14.7863C50.6645 16.7972 49.8044 17.0771 48.4124 18.4398L35.6833 31.1775C35.4487 31.4127 35.2162 31.6493 35.022 31.9197Z" fill="#A3FFEA"/>
<path d="M23.0085 52.411C15.9774 52.9261 9.86197 47.6391 9.35531 40.6072C8.84865 33.5754 14.1429 27.4663 21.1753 26.968C28.1959 26.4704 34.2926 31.7539 34.7984 38.7739C35.3043 45.7941 30.028 51.8969 23.0085 52.411ZM21.9266 33.0558C21.0177 33.1837 19.3959 35.0896 18.6316 35.81C17.9914 36.4134 16.4109 37.6087 16.5572 38.5635C16.7004 39.4966 17.8267 39.9054 18.5468 39.3432C18.888 39.077 20.4958 37.476 20.7515 37.1045C20.7266 38.8823 20.7509 40.6644 20.751 42.4427L20.7516 44.1224C20.7525 45.1314 20.6521 46.3052 22.0642 46.3043C23.4003 46.1634 23.1789 44.854 23.1764 43.8871L23.1768 38.4553C23.1771 38.0115 23.2135 37.5446 23.1761 37.1045C23.5908 37.5669 25.0442 39.1142 25.563 39.4242C26.5987 40.0428 28.5911 38.9026 26.6534 37.0385L24.0375 34.4753C23.45 33.8965 22.8524 32.9893 21.9266 33.0558Z" fill="#A3FFEA"/>
<path d="M36.1779 34.1826C38.4285 32.0208 40.5908 29.7627 42.8106 27.5679C43.0239 27.8512 43.5141 28.235 43.7874 28.4917C46.3879 30.9337 47.9728 33.6593 48.3622 37.2976C49.2105 45.2232 43.1874 51.7036 35.4609 52.5273C34.4232 52.5662 33.3692 52.5206 32.345 52.3451C31.8652 52.2628 31.3622 52.0673 30.8804 52.0496C35.7258 48.5872 38.1637 42.5727 36.924 36.7097C36.7421 35.8496 36.4537 35.0161 36.1779 34.1826Z" fill="#A3FFEA"/>
</svg>
