<svg width="60" height="60" viewBox="0 0 60 60" fill="none" xmlns="http://www.w3.org/2000/svg">
<path d="M50.4581 39.878L10.8109 39.8794C8.2143 39.88 8.13526 39.9642 8.13498 37.5474L8.13488 13.316C8.13188 12.012 7.72937 10.3102 9.53939 10.1696L49.1646 10.1691C50.3546 10.169 51.8479 9.88411 51.885 11.5841C51.9261 13.4666 51.884 15.3597 51.8842 17.2433L51.884 37.6797C51.8811 38.9495 52.0378 39.9106 50.4581 39.878ZM31.6128 15.1527C30.9453 15.4449 30.5788 16.3851 30.221 16.9732L25.9503 23.9205C25.487 24.6668 23.867 26.4562 25.4462 27.0278C25.7068 27.1222 28.7505 27.1238 29.1658 27.0915C28.97 27.6327 28.8401 28.1956 28.6925 28.7512L28.1106 30.8672C27.8332 31.8477 27.3453 33.0369 27.2199 34.032C27.1149 34.8651 28.1305 35.352 28.7682 34.8755C29.1648 34.481 29.7101 33.5297 30.0316 33.0277L33.9133 27.0784C34.2123 26.6281 35.2401 25.3307 35.2466 24.8155C35.2639 23.4277 33.9242 23.6529 33.0249 23.6535L30.373 23.6553C30.9197 22.1342 31.417 20.5934 31.9443 19.065L32.553 17.3193C32.9013 16.3013 33.3432 14.9973 31.6128 15.1527ZM42.6783 19.2634C42.384 19.7926 41.884 21.5554 41.6975 22.1788C41.2084 22.1781 39.0295 22.1003 38.7365 22.2668C38.5859 22.6185 40.654 23.8785 41.032 24.2146L40.4977 26.0686C40.4658 26.1817 40.1036 27.0859 40.3782 27.0877C41.0441 27.0921 42.4541 25.1633 42.9063 25.5802C43.2719 25.8502 44.9227 27.1417 45.2406 27.1225C45.5407 27.1043 45.0249 26.0196 44.9786 25.8769C44.8012 25.329 44.6573 24.7469 44.4405 24.2146C44.8057 23.9635 46.5978 22.6041 46.7347 22.3406L46.7314 22.2735C46.4974 22.1265 44.2084 22.1496 43.8323 22.1788C43.6892 21.6874 43.0858 19.2935 42.6783 19.2634ZM17.298 19.3738C16.9248 20.007 16.4388 21.3901 16.2768 22.1151C15.7958 22.0997 13.5594 22.149 13.2795 22.2746C13.2104 22.646 15.2315 23.92 15.5819 24.2146C15.4386 24.569 14.6537 26.9179 14.7092 27.1272C15.0929 27.2809 16.759 25.5668 17.298 25.5802C17.8285 25.8912 18.3452 26.254 18.8513 26.6038C18.9477 26.6704 19.6739 27.297 19.7688 27.045C19.8652 26.7887 19.1404 24.6278 19.0017 24.2146C19.4346 23.9231 21.1945 22.6551 21.379 22.3656L21.3879 22.2933C21.1821 22.0899 18.7264 22.1151 18.3294 22.1151C18.2783 21.7594 17.5101 19.5297 17.298 19.3738Z" fill="#A3FFEA"/>
<path d="M36.7357 48.7099L23.1438 48.7121C22.1961 48.7137 20.4842 49.0353 20.1907 47.7964C20.0301 47.1187 22.7528 42.657 23.197 41.9167C23.5545 41.9705 23.9852 41.9197 24.3515 41.9189L36.7357 41.9167C36.9254 42.9861 39.0312 45.5118 39.6619 46.8372C39.9839 47.5136 39.7672 48.414 38.9796 48.6487C38.5043 48.7904 37.3027 48.7108 36.7357 48.7099Z" fill="#A3FFEA"/>
</svg>
