<svg width="140" height="41" viewBox="0 0 140 41" fill="none" xmlns="http://www.w3.org/2000/svg">
  <g clip-path="url(#clip0_4082_1837)">
    <mask id="mask0_4082_1837" style="mask-type:luminance" maskUnits="userSpaceOnUse" x="0" y="0" width="140" height="41">
      <path d="M139.769 0.538086H0.227539V40.0918H139.769V0.538086Z" fill="white" />
    </mask>
    <g mask="url(#mask0_4082_1837)">
      <mask id="mask1_4082_1837" style="mask-type:luminance" maskUnits="userSpaceOnUse" x="0" y="0" width="140" height="41">
        <path d="M0.227539 0.538086H139.77V40.0918H0.227539V0.538086Z" fill="white" />
      </mask>
      <g mask="url(#mask1_4082_1837)">
        <path d="M53.697 10.6539C53.6689 10.7122 53.6285 10.7639 53.5786 10.8055C53.5288 10.8472 53.4706 10.8779 53.4079 10.8955L50.7665 11.6724C50.4432 11.7651 50.2756 11.6724 50.1436 11.3516C49.9918 10.7158 49.6128 10.1561 49.0768 9.7763C48.5409 9.39651 47.8842 9.22237 47.2287 9.28616C44.7424 9.28616 43.8914 10.7472 43.8914 12.7144V17.2402C43.8914 19.2074 44.7306 20.6684 47.2287 20.6684C49.2845 20.6684 50.3361 19.7191 50.3361 17.6531V17.035H47.651C47.5996 17.0393 47.5479 17.032 47.4996 17.0136C47.4513 16.9952 47.408 16.9662 47.3727 16.9288C47.3374 16.8914 47.3111 16.8465 47.2957 16.7976C47.2804 16.7486 47.2764 16.697 47.2841 16.6463V14.194C47.2776 14.1434 47.2824 14.0922 47.2982 14.0437C47.314 13.9954 47.3403 13.951 47.3754 13.9138C47.4104 13.8767 47.4533 13.8477 47.5009 13.829C47.5486 13.8102 47.5998 13.8021 47.651 13.8052H53.6316C53.6827 13.7975 53.7349 13.8015 53.7841 13.8166C53.8335 13.8318 53.8787 13.858 53.9164 13.893C53.9542 13.9281 53.9834 13.9711 54.0019 14.019C54.0205 14.0667 54.0277 14.1182 54.0235 14.1692V17.9095C54.0235 21.4854 51.3758 24.18 47.2611 24.18C42.382 24.18 40.1013 21.313 40.1013 17.3977V12.6155C40.1013 8.67556 42.382 5.83325 47.2611 5.83325C51.2076 5.83325 52.9924 8.06556 53.7063 10.3034M67.1314 14.7532V23.5292C67.1341 23.5777 67.1265 23.6263 67.1089 23.6716C67.0914 23.717 67.0645 23.7582 67.0299 23.7925C66.9952 23.827 66.9538 23.8536 66.908 23.871C66.8623 23.8883 66.8133 23.896 66.7644 23.8932H64.067C64.0163 23.8986 63.965 23.8931 63.9168 23.8771C63.8685 23.861 63.8242 23.8348 63.787 23.8003C63.7498 23.7657 63.7206 23.7236 63.7013 23.6768C63.6819 23.6301 63.6731 23.5797 63.6751 23.5292V22.0923C63.292 22.732 62.7454 23.2597 62.0905 23.6225C61.4356 23.9852 60.6959 24.1698 59.946 24.1577C57.398 24.1577 55.751 22.5298 55.751 20.0268C55.751 17.5238 57.2984 16.1333 61.0711 15.8713C61.8862 15.8096 62.7049 15.8096 63.52 15.8713V14.8725C63.52 13.5592 62.8347 13.0227 61.6555 13.0227C61.2458 12.9653 60.8292 13.0595 60.4852 13.2875C60.1413 13.5156 59.8941 13.8614 59.7909 14.2588C59.6663 14.5486 59.5735 14.5981 59.3 14.524L56.6025 13.8441C56.3353 13.77 56.3104 13.6223 56.3602 13.4313C56.7272 11.5074 58.5668 10.0939 61.7987 10.0939C65.2045 10.0939 67.1189 11.7008 67.1189 14.718M63.5144 19.3118V18.085C62.7946 18.0592 62.0739 18.084 61.3577 18.1592C59.9903 18.3254 59.2507 18.7388 59.2507 19.7871C59.2507 20.7302 59.8738 21.2418 60.9415 21.2418C61.5212 21.2537 62.0884 21.0743 62.5541 20.7316C63.0198 20.389 63.3576 19.9026 63.5144 19.3488M76.8646 10.131C77.6194 10.1175 78.3576 10.3517 78.9644 10.7971C79.5714 11.2426 80.0129 11.8744 80.2206 12.5945C81.2273 11.1335 82.4521 10.1279 84.1672 10.1279C86.5412 10.1279 87.8962 11.9776 87.8962 14.7953V23.5292C87.8924 23.5822 87.8777 23.634 87.8533 23.6812C87.8288 23.7284 87.795 23.7703 87.7537 23.8043C87.7125 23.8383 87.6649 23.8637 87.6136 23.879C87.5623 23.8943 87.5083 23.8991 87.4551 23.8932H84.6399C84.5867 23.8992 84.5327 23.8944 84.4814 23.8792C84.43 23.864 84.3823 23.8385 84.3412 23.8045C84.3 23.7705 84.2661 23.7286 84.2416 23.6813C84.2172 23.634 84.2027 23.5823 84.1989 23.5292V15.4331C84.1989 14.197 83.6581 13.4844 82.7038 13.4844C81.7493 13.4844 80.9638 14.317 80.5968 15.5807V23.5286C80.6003 23.5752 80.594 23.622 80.5783 23.6661C80.5627 23.7101 80.538 23.7505 80.506 23.7846C80.4739 23.8188 80.435 23.8461 80.3918 23.8646C80.3485 23.8832 80.3019 23.8927 80.2549 23.8926H77.2055C76.988 23.8926 76.8883 23.7448 76.8883 23.5286V15.4324C76.8883 14.1964 76.3475 13.4838 75.3932 13.4838C74.4388 13.4838 73.6283 14.3595 73.2864 15.6048V23.528C73.2912 23.577 73.285 23.6264 73.2682 23.6727C73.2515 23.7191 73.2246 23.7612 73.1896 23.7959C73.1544 23.8308 73.1121 23.8575 73.0653 23.8741C73.0186 23.8906 72.9687 23.8967 72.9193 23.892H69.9292C69.8798 23.8967 69.8299 23.8906 69.7831 23.8741C69.7364 23.8575 69.6941 23.8308 69.6589 23.7959C69.6238 23.7612 69.597 23.7191 69.5803 23.6727C69.5635 23.6264 69.5573 23.577 69.5621 23.528V10.7657C69.562 10.719 69.5717 10.6728 69.5904 10.6299C69.6091 10.587 69.6365 10.5485 69.671 10.5166C69.7055 10.4848 69.7462 10.4603 69.7906 10.4448C69.835 10.4293 69.8821 10.423 69.9292 10.4264H72.7948C72.8419 10.4221 72.8895 10.4276 72.9343 10.4428C72.9793 10.458 73.0204 10.4824 73.055 10.5144C73.0896 10.5465 73.117 10.5854 73.1355 10.6287C73.1539 10.6721 73.1628 10.7187 73.1617 10.7657V12.2947C73.5565 11.6582 74.1032 11.1278 74.7536 10.7506C75.4039 10.3733 76.138 10.1607 76.8909 10.1316M103.312 10.4277C103.386 10.7422 103.312 10.9839 102.994 11.0457L100.397 11.7978C100.338 11.8257 100.274 11.8395 100.209 11.838C100.144 11.8364 100.08 11.8195 100.023 11.7888C99.9664 11.7581 99.9175 11.7144 99.8808 11.6613C99.8441 11.6082 99.8206 11.5472 99.8124 11.4833C99.4386 10.2472 98.8057 9.2942 96.9909 9.2942C94.7594 9.2942 94.0512 10.7552 94.0512 12.7224V17.2482C94.0512 19.2154 94.861 20.6764 96.9909 20.6764C98.9053 20.6764 99.6386 19.6035 99.9307 18.2661C99.9373 18.2007 99.9599 18.138 99.9967 18.0833C100.033 18.0286 100.083 17.9837 100.141 17.9526C100.2 17.9215 100.265 17.9052 100.331 17.905C100.398 17.9048 100.463 17.9207 100.521 17.9515L103.125 18.7902C103.188 18.8082 103.247 18.8388 103.297 18.8803C103.348 18.9217 103.389 18.973 103.419 19.031C103.449 19.0888 103.466 19.1523 103.47 19.2172C103.474 19.2821 103.465 19.3471 103.442 19.4082C102.819 22.0348 100.919 24.167 96.9474 24.167C92.4912 24.167 90.2349 21.3 90.2349 17.3847V12.6155C90.2349 8.67556 92.5342 5.83325 96.9474 5.83325C100.819 5.83325 102.634 7.87274 103.318 10.4512M116.352 14.7575V23.5335C116.356 23.5821 116.348 23.6305 116.33 23.676C116.313 23.7213 116.286 23.7625 116.252 23.7968C116.217 23.8313 116.175 23.858 116.129 23.8753C116.084 23.8926 116.034 23.9002 115.986 23.8975H113.288C113.238 23.903 113.186 23.8974 113.138 23.8814C113.09 23.8653 113.046 23.8391 113.008 23.8046C112.971 23.7701 112.942 23.728 112.923 23.6812C112.904 23.6344 112.895 23.5841 112.897 23.5335V22.0923C112.513 22.732 111.967 23.2597 111.312 23.6225C110.657 23.9852 109.917 24.1698 109.168 24.1577C106.62 24.1577 104.979 22.5298 104.979 20.0268C104.979 17.5238 106.52 16.1333 110.293 15.8713C111.11 15.8095 111.93 15.8095 112.748 15.8713V14.8725C112.748 13.5592 112.058 13.0227 110.883 13.0227C110.474 12.9685 110.059 13.0642 109.716 13.2917C109.373 13.5192 109.125 13.8631 109.019 14.2588C108.9 14.5486 108.801 14.5981 108.528 14.524L105.836 13.8441C105.563 13.77 105.538 13.6223 105.587 13.4313C105.954 11.5074 107.794 10.0939 111.031 10.0939C114.437 10.0939 116.346 11.7008 116.346 14.718M112.747 19.3118V18.085C112.027 18.059 111.307 18.0838 110.59 18.1592C109.22 18.3254 108.483 18.7388 108.483 19.7871C108.483 20.7302 109.107 21.2418 110.174 21.2418C110.754 21.2527 111.32 21.0728 111.786 20.7303C112.251 20.3878 112.589 19.9021 112.747 19.3488M126.849 10.6675V13.2694C126.849 13.584 126.725 13.707 126.408 13.707H126.011C124.052 13.707 122.903 14.5826 122.511 16.0436V23.5292C122.515 23.5743 122.509 23.6195 122.494 23.6624C122.48 23.7053 122.457 23.7447 122.427 23.7787C122.397 23.8126 122.36 23.8402 122.32 23.8598C122.278 23.8795 122.233 23.8908 122.189 23.8932H119.081C119.036 23.8908 118.991 23.8795 118.95 23.8598C118.908 23.8402 118.872 23.8126 118.842 23.7787C118.812 23.7447 118.788 23.7053 118.775 23.6624C118.76 23.6195 118.754 23.5743 118.757 23.5292V10.7657C118.756 10.7185 118.764 10.6713 118.782 10.6275C118.8 10.5837 118.828 10.5443 118.862 10.5121C118.897 10.4798 118.938 10.4554 118.983 10.4407C119.029 10.4259 119.077 10.421 119.124 10.4264H121.921C122.213 10.4264 122.288 10.6174 122.288 10.8152V12.6155C122.647 11.8802 123.214 11.264 123.918 10.8416C124.622 10.4192 125.437 10.2086 126.26 10.2355C126.75 10.2355 126.883 10.3096 126.883 10.6483M131.662 18.2501V18.7617C131.662 20.174 132.401 21.1665 134.148 21.1665C135.895 21.1665 136.305 20.5485 136.745 19.7357C136.964 19.3717 137.063 19.323 137.454 19.4885L139.385 20.4625C139.784 20.6597 139.807 20.8513 139.635 21.2147C138.802 23.0644 136.72 24.1558 134.122 24.1558C130.197 24.1558 128.141 21.8501 128.141 18.687V15.6061C128.141 12.5234 130.072 10.131 134.095 10.131C137.918 10.131 139.783 12.5413 139.783 15.5325V17.6722C139.783 18.0362 139.658 18.2902 139.16 18.2902L131.662 18.2501ZM131.662 15.4071V15.87H136.391V15.4077C136.421 15.0941 136.38 14.7778 136.273 14.4814C136.165 14.185 135.994 13.9157 135.769 13.6926C135.545 13.4696 135.274 13.2983 134.976 13.1908C134.677 13.0834 134.359 13.0425 134.042 13.071C133.725 13.0421 133.404 13.0825 133.104 13.1894C132.803 13.2962 132.531 13.467 132.303 13.6896C132.077 13.9122 131.901 14.1814 131.79 14.4782C131.68 14.775 131.636 15.0916 131.662 15.4071Z" fill="white" />
        <path d="M17.1761 0.538111H0.730898C0.665032 0.537457 0.599689 0.549764 0.538647 0.574317C0.477605 0.598872 0.422075 0.635187 0.375267 0.681164C0.32846 0.72714 0.291303 0.781865 0.265946 0.842176C0.240589 0.902486 0.227536 0.967185 0.227539 1.03253V24.7586C0.22952 28.8242 1.85891 32.7227 4.75747 35.5969C7.65603 38.471 11.5865 40.0856 15.6847 40.0856H17.1761C21.2736 40.0856 25.2033 38.4708 28.1006 35.5964C30.998 32.722 32.6257 28.8236 32.6257 24.7586V15.8665C32.6257 13.8537 32.2261 11.8606 31.4497 10.001C30.6732 8.14143 29.5353 6.45178 28.1006 5.02854C26.666 3.60528 24.9628 2.47631 23.0884 1.70605C21.2139 0.935793 19.205 0.539347 17.1761 0.539347M27.6613 25.0162C27.6613 30.7874 23.3914 35.147 16.7412 35.147C8.86689 35.147 5.187 30.5118 5.187 24.1845V16.4584C5.187 10.0928 8.86627 5.46502 16.7288 5.46502C23.0992 5.46502 25.9893 9.078 27.1392 12.6916C27.1835 12.7874 27.2065 12.8918 27.2065 12.9972C27.2066 13.1028 27.1836 13.207 27.1394 13.3029C27.0951 13.3988 27.0304 13.4841 26.9499 13.553C26.8694 13.6219 26.7747 13.6728 26.6726 13.7021L22.3965 14.9381C21.8869 15.092 21.6073 14.9381 21.4522 14.4264C20.775 12.2682 19.3515 11.089 16.7412 11.089C12.7013 11.089 11.3587 13.4443 11.3587 16.6383V23.9558C11.3587 27.1373 12.7013 29.505 16.7412 29.505C20.066 29.505 21.8066 27.9698 21.8066 24.6337V23.6782H17.3505C17.2659 23.6897 17.1799 23.6816 17.0991 23.6546C17.0182 23.6276 16.9448 23.5824 16.8845 23.5226C16.8242 23.4627 16.7786 23.3899 16.7514 23.3097C16.7242 23.2295 16.716 23.1441 16.7276 23.0602V19.0109C16.7207 18.928 16.7323 18.8447 16.7612 18.7667C16.79 18.6887 16.8357 18.6178 16.895 18.559C16.9542 18.5002 17.0257 18.4549 17.1043 18.4262C17.1829 18.3976 17.2669 18.3861 17.3505 18.3929H27.0271C27.1086 18.3823 27.1915 18.39 27.2697 18.4152C27.3478 18.4404 27.4194 18.4827 27.4791 18.5388C27.5387 18.5949 27.5851 18.6636 27.6146 18.7397C27.6442 18.8158 27.6563 18.8974 27.6501 18.9788L27.6613 25.0162Z" fill="white" />
        <path d="M43.7483 29.1418C43.7553 29.1541 43.7595 29.1677 43.7604 29.1818C43.7613 29.196 43.759 29.2101 43.7535 29.2231C43.7482 29.2362 43.7399 29.2477 43.7292 29.2572C43.7186 29.2665 43.7059 29.2734 43.6922 29.2772L43.2561 29.4125C43.1876 29.4125 43.1502 29.4125 43.1196 29.3568C43.057 29.1172 42.911 28.9072 42.7073 28.764C42.5038 28.6207 42.2558 28.5534 42.007 28.5738C41.838 28.551 41.6659 28.5671 41.5042 28.6212C41.3425 28.6752 41.1957 28.7655 41.0749 28.8852C40.9543 29.0048 40.8633 29.1506 40.8088 29.3111C40.7543 29.4714 40.738 29.6422 40.7611 29.8098V31.444C40.738 31.6116 40.7543 31.7824 40.8088 31.9427C40.8633 32.1032 40.9543 32.249 41.0749 32.3686C41.1957 32.4883 41.3425 32.5786 41.5042 32.6327C41.6659 32.6867 41.838 32.703 42.007 32.68C42.7091 32.68 43.1695 32.3593 43.1695 31.638V31.02H42.1509C42.0949 31.02 42.0637 31.02 42.0637 30.9273V30.5848C42.0637 30.5231 42.0637 30.4922 42.1509 30.4922H43.7296C43.7426 30.4903 43.7558 30.4913 43.7683 30.4952C43.7809 30.4991 43.7924 30.5057 43.8019 30.5146C43.8116 30.5235 43.8189 30.5345 43.8236 30.5466C43.8285 30.5588 43.8304 30.5718 43.8292 30.5848V31.7196C43.8314 31.95 43.7844 32.1783 43.6914 32.3894C43.5984 32.6005 43.4613 32.7897 43.2894 32.9446C43.1175 33.0996 42.9144 33.2166 42.6936 33.2882C42.4728 33.3597 42.2393 33.3842 42.0082 33.3598C41.7542 33.3894 41.4967 33.3623 41.2546 33.2804C41.0124 33.1985 40.7919 33.064 40.6089 32.8865C40.426 32.7092 40.2853 32.4934 40.1973 32.2552C40.1093 32.0168 40.0761 31.7621 40.1001 31.5094V29.779C40.0762 29.5264 40.1095 29.2716 40.1975 29.0335C40.2857 28.7953 40.4262 28.5796 40.6092 28.4023C40.7921 28.225 41.0127 28.0905 41.2548 28.0086C41.4968 27.9267 41.7543 27.8996 42.0082 27.9292C42.3928 27.8988 42.7762 28.0013 43.0933 28.2193C43.4104 28.4372 43.6418 28.7573 43.7483 29.1251M47.1042 32.0725V31.4544C46.8102 31.4361 46.5153 31.4361 46.2215 31.4544C45.6744 31.5163 45.3449 31.7072 45.3449 32.1572C45.3379 32.2515 45.3528 32.3463 45.3884 32.4341C45.4241 32.5218 45.4797 32.6003 45.5507 32.6634C45.6218 32.7265 45.7066 32.7726 45.7984 32.7981C45.8903 32.8236 45.9868 32.8278 46.0807 32.8104C46.3071 32.8081 46.5273 32.736 46.7108 32.6041C46.8942 32.4722 47.0319 32.2871 47.1048 32.0743M47.7277 30.4958V33.1905C47.7277 33.2461 47.7277 33.2708 47.6343 33.2708H47.1982C47.1359 33.2708 47.1048 33.2708 47.1048 33.1905V32.6787C46.9853 32.8793 46.8153 33.0455 46.6115 33.1613C46.4077 33.277 46.1771 33.3382 45.9424 33.3388C45.7817 33.3551 45.6196 33.3372 45.4666 33.2862C45.3136 33.2351 45.1734 33.1522 45.0553 33.043C44.9374 32.9337 44.8442 32.8007 44.7824 32.6528C44.7204 32.505 44.6911 32.3456 44.6964 32.1856C44.6964 31.4643 45.1874 31.0694 46.1448 30.9958C46.4572 30.9744 46.7707 30.9744 47.083 30.9958V30.5416C47.083 30.0237 46.7783 29.8081 46.2874 29.8081C46.1128 29.7793 45.9335 29.8165 45.7851 29.9124C45.6367 30.0083 45.5299 30.1558 45.4857 30.326C45.4857 30.394 45.4359 30.4001 45.3611 30.3877L44.9387 30.2703C44.8702 30.2703 44.8516 30.2208 44.8702 30.1653C45.0004 29.6226 45.4932 29.271 46.3031 29.271C47.1129 29.271 47.7204 29.6658 47.7204 30.5071M50.5791 29.2617C50.7946 29.2572 51.0055 29.3246 51.1779 29.4532C51.3503 29.5817 51.4741 29.7638 51.5298 29.9706C51.6449 29.7638 51.8118 29.5901 52.0143 29.4658C52.2168 29.3417 52.4481 29.2714 52.686 29.2617C52.8377 29.263 52.9875 29.2961 53.1254 29.3588C53.2632 29.4216 53.3862 29.5127 53.486 29.6261C53.5859 29.7394 53.6605 29.8724 53.7047 30.0163C53.7491 30.1603 53.7622 30.312 53.7431 30.4613V33.1806C53.7431 33.2424 53.7059 33.2671 53.6435 33.2671H53.215C53.1464 33.2671 53.1153 33.2671 53.1153 33.1806V30.5848C53.1153 30.1041 52.8978 29.8433 52.4922 29.8433C52.2897 29.8663 52.0989 29.9494 51.9448 30.0817C51.7907 30.214 51.6803 30.3894 51.6283 30.5848V33.193C51.6283 33.2547 51.6281 33.2795 51.541 33.2795H51.0644C50.9959 33.2795 50.9772 33.2795 50.9772 33.193V30.5848C50.9772 30.1041 50.766 29.8433 50.3543 29.8433C50.1538 29.872 49.9658 29.9571 49.8127 30.0885C49.6596 30.22 49.5476 30.3923 49.4902 30.5848V33.1621C49.4902 33.2238 49.4902 33.2486 49.4029 33.2486H48.9307C48.8622 33.2486 48.8435 33.2486 48.8435 33.1621V29.4131C48.8435 29.3636 48.8435 29.3327 48.9307 29.3327H49.3905C49.459 29.3327 49.4777 29.3636 49.4777 29.4131V29.9311C49.5899 29.7354 49.7502 29.5712 49.9437 29.4537C50.1372 29.3363 50.3575 29.2694 50.5841 29.2592M55.5187 30.8562V31.7691C55.5096 31.9006 55.5289 32.0326 55.5751 32.1563C55.6215 32.28 55.6937 32.3924 55.7872 32.4863C55.8806 32.5801 55.993 32.6532 56.1171 32.7006C56.2411 32.7481 56.3739 32.7688 56.5066 32.7616C57.0786 32.7616 57.4206 32.4285 57.4206 31.7691V30.8501C57.4206 30.1962 57.0786 29.8451 56.5066 29.8451C56.3743 29.8422 56.2428 29.8667 56.1205 29.9172C55.9983 29.9676 55.8879 30.0428 55.7967 30.1381C55.7054 30.2332 55.6352 30.3463 55.5906 30.47C55.5459 30.5936 55.5278 30.7252 55.5374 30.8562M55.5374 27.9088V29.876C55.6591 29.6792 55.8316 29.5181 56.037 29.4094C56.2424 29.3008 56.4734 29.2485 56.706 29.258C56.8989 29.255 57.09 29.2928 57.267 29.369C57.4439 29.4452 57.6023 29.558 57.7318 29.6997C57.8613 29.8416 57.9587 30.0092 58.0176 30.1913C58.0765 30.3735 58.0956 30.5661 58.0734 30.7561V31.8475C58.0949 32.0392 58.0745 32.2332 58.0137 32.4164C57.9529 32.5996 57.8531 32.7677 57.7211 32.9092C57.589 33.0507 57.4277 33.1624 57.2483 33.2366C57.0689 33.3108 56.8755 33.346 56.6811 33.3394C56.4505 33.3466 56.2222 33.2933 56.0191 33.1848C55.8162 33.0763 55.6456 32.9164 55.5248 32.7214V33.1775C55.5248 33.2332 55.4813 33.2516 55.4377 33.2516H54.978C54.9218 33.2516 54.8907 33.2516 54.8907 33.1775V27.9088C54.8897 27.8981 54.8912 27.8872 54.895 27.877C54.8987 27.8668 54.9046 27.8576 54.9123 27.85C54.92 27.8423 54.9293 27.8364 54.9396 27.8327C54.9498 27.829 54.9608 27.8275 54.9717 27.8285H55.4626C55.5187 27.8285 55.5374 27.8285 55.5374 27.9088ZM59.7386 27.9088V33.1806C59.7386 33.2424 59.7386 33.2671 59.6515 33.2671H59.1792C59.1045 33.2671 59.0858 33.2671 59.0858 33.1806V27.9088C59.0858 27.8532 59.0858 27.8223 59.1792 27.8223H59.6515C59.6634 27.8201 59.6757 27.8208 59.6873 27.8244C59.6989 27.828 59.7094 27.8343 59.718 27.8427C59.7266 27.8513 59.733 27.8617 59.7366 27.8733C59.7402 27.8847 59.7409 27.897 59.7386 27.9088ZM61.4804 29.4168V33.1867C61.4804 33.2424 61.4804 33.2671 61.3995 33.2671H60.9273C60.8526 33.2671 60.8339 33.2671 60.8339 33.1867V29.4168C60.8339 29.3612 60.8339 29.3365 60.9273 29.3365H61.3995C61.4617 29.3365 61.4804 29.3365 61.4804 29.4168ZM61.4804 27.9335V28.6238C61.4804 28.6918 61.4804 28.729 61.3746 28.729H60.9385C60.9241 28.7311 60.9095 28.7297 60.8956 28.7252C60.8818 28.7206 60.8693 28.713 60.859 28.7027C60.8487 28.6925 60.8409 28.6801 60.8363 28.6664C60.8317 28.6527 60.8305 28.6382 60.8326 28.6238V27.9335C60.8305 27.9193 60.8317 27.9047 60.8363 27.8911C60.8409 27.8773 60.8487 27.8648 60.859 27.8547C60.8693 27.8445 60.8818 27.8368 60.8956 27.8323C60.9095 27.8277 60.9241 27.8264 60.9385 27.8285H61.3746C61.4556 27.8285 61.4804 27.8656 61.4804 27.9335ZM63.2516 30.6157V33.1867C63.2516 33.2424 63.2516 33.2671 63.1706 33.2671H62.7233C62.6485 33.2671 62.6299 33.2671 62.6299 33.1867V29.4131C62.6299 29.3636 62.6299 29.3327 62.717 29.3327H63.1768C63.2453 29.3327 63.264 29.3636 63.264 29.4131V29.9311C63.4005 29.7264 63.5854 29.5582 63.8025 29.441C64.0198 29.3238 64.2628 29.2614 64.5099 29.2592C64.6766 29.2548 64.8422 29.2865 64.9952 29.3523C65.1482 29.4181 65.2849 29.5162 65.3956 29.6398C65.5064 29.7634 65.5885 29.9096 65.6363 30.0681C65.6841 30.2265 65.6965 30.3934 65.6725 30.5571V33.1867C65.6725 33.2424 65.6725 33.2671 65.579 33.2671H65.1068C65.0445 33.2671 65.0134 33.2671 65.0134 33.1867V30.6591C65.0134 30.1535 64.7834 29.8556 64.2864 29.8556C64.0626 29.8695 63.848 29.949 63.6699 30.084C63.4919 30.219 63.3581 30.4034 63.2859 30.614M67.2012 30.6757C67.1911 30.7927 67.2073 30.9105 67.2489 31.0204C67.2904 31.1304 67.3562 31.2297 67.4414 31.3113C67.5265 31.3928 67.629 31.4545 67.7412 31.4917C67.8535 31.5291 67.9727 31.541 68.0902 31.5267C68.2045 31.5416 68.3207 31.5304 68.4299 31.4941C68.5392 31.4576 68.6387 31.397 68.7208 31.3167C68.8029 31.2365 68.8655 31.1387 68.9038 31.0308C68.9421 30.923 68.9551 30.8078 68.9418 30.6943C68.9503 30.5758 68.934 30.4568 68.8942 30.3448C68.8543 30.2328 68.7916 30.1303 68.7099 30.0433C68.6283 29.9564 68.5296 29.8872 68.4197 29.8397C68.31 29.7924 68.1916 29.7678 68.0719 29.7678C67.9521 29.7678 67.8336 29.7924 67.7239 29.8397C67.6141 29.8872 67.5153 29.9564 67.4337 30.0433C67.352 30.1303 67.2893 30.2328 67.2495 30.3448C67.2096 30.4568 67.1933 30.5758 67.2019 30.6943M69.2838 33.654C69.2838 33.3703 69.1224 33.1052 68.5362 33.1052H67.8092C67.2622 33.1052 67.0947 33.3827 67.0947 33.6664C67.0947 34.0606 67.4061 34.3203 68.17 34.3203C68.9337 34.3203 69.2826 34.049 69.2826 33.6546M69.9055 33.6114C69.9055 34.2294 69.4209 34.7893 68.1345 34.7893C66.9471 34.7893 66.481 34.3456 66.481 33.7287C66.4837 33.5405 66.5451 33.3576 66.6566 33.2053C66.7681 33.053 66.9244 32.9385 67.1041 32.8777C67.0223 32.821 66.9547 32.7465 66.9063 32.6601C66.8578 32.5735 66.8298 32.4772 66.8243 32.3784C66.8288 32.2565 66.8694 32.1386 66.9413 32.0397C67.0131 31.9407 67.1129 31.8651 67.2281 31.8222C67.0307 31.7094 66.8683 31.5452 66.7584 31.3473C66.6487 31.1495 66.5956 30.9255 66.605 30.6998C66.5956 30.5098 66.6284 30.3201 66.7011 30.144C66.7738 29.968 66.8847 29.8098 67.0257 29.6811C67.1668 29.5522 67.3348 29.4557 67.5177 29.3984C67.7005 29.3411 67.8939 29.3244 68.084 29.3494H69.8158C69.8657 29.3494 69.8905 29.3804 69.8905 29.436V29.7876C69.8905 29.8556 69.8532 29.8803 69.8034 29.8803H69.1137C69.2476 29.9897 69.3538 30.1287 69.4239 30.2862C69.494 30.4436 69.5261 30.6151 69.5175 30.787C69.5175 31.5144 69.0266 32.0231 68.0846 32.0231H67.7601C67.4866 32.0231 67.3682 32.1466 67.3682 32.2944C67.3682 32.4421 67.4927 32.5656 67.7601 32.5656H68.6116C69.5461 32.5656 69.9105 33.028 69.9105 33.6015M75.84 29.0386C75.8462 29.0506 75.8494 29.064 75.8492 29.0775C75.8488 29.0911 75.845 29.1043 75.8382 29.116C75.8313 29.1277 75.8217 29.1375 75.8101 29.1445C75.7983 29.1515 75.7851 29.1555 75.7714 29.156L75.3678 29.3098C75.3551 29.3147 75.3416 29.317 75.328 29.3165C75.3145 29.316 75.3011 29.3127 75.2889 29.307C75.2766 29.3012 75.2657 29.293 75.2568 29.2828C75.2478 29.2727 75.2411 29.261 75.237 29.2481C75.1681 29.0361 75.0298 28.853 74.844 28.7278C74.6581 28.6027 74.4356 28.5428 74.2115 28.5577C73.5885 28.5577 73.236 28.8476 73.236 29.3223C73.236 29.797 73.4969 29.9403 74.4819 30.3334C75.4668 30.7264 75.8867 31.1473 75.8867 31.8784C75.8812 32.0894 75.8315 32.297 75.7405 32.4878C75.6496 32.6786 75.5195 32.8485 75.3586 32.9866C75.1978 33.1247 75.0096 33.228 74.8061 33.2898C74.6027 33.3516 74.3884 33.3706 74.1772 33.3456C73.7912 33.3846 73.4037 33.2856 73.0847 33.0664C72.7657 32.8472 72.5361 32.5221 72.4373 32.1497C72.4373 32.0755 72.4373 32.0446 72.4996 32.0205L72.9219 31.8852C73.0029 31.8852 73.0341 31.8852 73.0527 31.9594C73.1131 32.2024 73.2606 32.4153 73.4677 32.5583C73.6747 32.7013 73.9272 32.7645 74.1779 32.7363C74.8008 32.7363 75.2032 32.4272 75.2032 31.9285C75.2032 31.4297 74.9672 31.2486 74.0658 30.9051C72.9843 30.4798 72.5744 30.0602 72.5744 29.3327C72.5822 29.1314 72.6321 28.9338 72.721 28.7525C72.8098 28.5713 72.9357 28.4104 73.0906 28.28C73.2454 28.1495 73.4259 28.0524 73.6206 27.9947C73.8152 27.9372 74.0199 27.9203 74.2215 27.9453C74.5775 27.9208 74.9316 28.0148 75.2278 28.2125C75.5238 28.4103 75.745 28.7003 75.8561 29.0367M76.8442 32.0521V29.4168C76.8442 29.3612 76.8753 29.3303 76.9377 29.3303H77.4099C77.4721 29.3303 77.5033 29.3612 77.5033 29.4168V31.9384C77.5033 32.4501 77.7331 32.7462 78.2241 32.7462C78.4489 32.7332 78.6646 32.6533 78.8431 32.5168C79.0215 32.3805 79.1545 32.194 79.2245 31.9816V29.4168C79.2245 29.3612 79.2245 29.3303 79.318 29.3303H79.7839C79.8587 29.3303 79.8775 29.3612 79.8775 29.4168V33.1806C79.8775 33.2362 79.8774 33.2671 79.7902 33.2671H79.3304C79.3185 33.2693 79.3063 33.2686 79.2946 33.2651C79.283 33.2615 79.2724 33.2552 79.2639 33.2466C79.2553 33.2382 79.2489 33.2276 79.2453 33.2162C79.2417 33.2046 79.241 33.1924 79.2432 33.1806V32.6688C79.1088 32.8758 78.9244 33.0464 78.7069 33.1652C78.4894 33.2838 78.2455 33.347 77.9973 33.3487C77.831 33.3521 77.6658 33.3196 77.5134 33.2535C77.3609 33.1874 77.2247 33.0893 77.1142 32.9658C77.0036 32.8425 76.9214 32.6967 76.8733 32.5387C76.825 32.3808 76.8119 32.2143 76.8349 32.0508M83.5211 31.7653V30.8253C83.5414 30.698 83.5325 30.5677 83.495 30.4442C83.4575 30.3207 83.3925 30.2073 83.3045 30.1123C83.2167 30.0172 83.1084 29.9431 82.9877 29.8953C82.867 29.8475 82.7369 29.8274 82.6072 29.8365C82.4765 29.8327 82.3465 29.8562 82.2254 29.9052C82.1045 29.9543 81.995 30.0278 81.9043 30.1213C81.8137 30.2147 81.7437 30.3261 81.6989 30.4478C81.6541 30.5697 81.6354 30.6996 81.6441 30.829V31.7561C81.6345 31.8868 81.6527 32.0181 81.6973 32.1414C81.742 32.2648 81.8124 32.3775 81.9038 32.4722C81.995 32.567 82.1055 32.6415 82.2278 32.6913C82.35 32.7411 82.4815 32.7647 82.6135 32.761C83.1854 32.761 83.5274 32.4155 83.5274 31.7622M81.0785 34.7034C81.0677 34.7044 81.0567 34.703 81.0464 34.6992C81.0362 34.6955 81.0268 34.6896 81.0192 34.682C81.0115 34.6743 81.0055 34.6651 81.0017 34.6548C80.998 34.6447 80.9966 34.6338 80.9976 34.6231V29.4131C80.9976 29.3575 81.0287 29.3327 81.0847 29.3327H81.5445C81.5559 29.3308 81.5675 29.3315 81.5785 29.3347C81.5896 29.338 81.5997 29.3437 81.6082 29.3515C81.6166 29.3593 81.6231 29.3688 81.6272 29.3795C81.6313 29.3903 81.6328 29.4017 81.6317 29.4131V29.8568C81.7545 29.6638 81.9255 29.5055 82.128 29.3972C82.3306 29.289 82.5578 29.2344 82.7879 29.2388C82.9814 29.2325 83.1741 29.2674 83.3528 29.3411C83.5316 29.4148 83.6923 29.5256 83.8242 29.6662C83.9562 29.8067 84.0562 29.9737 84.1177 30.1558C84.179 30.338 84.2004 30.5311 84.1803 30.7221V31.8271C84.2013 32.017 84.1816 32.2091 84.1223 32.3908C84.063 32.5725 83.9655 32.7397 83.8362 32.8813C83.707 33.023 83.5489 33.1357 83.3725 33.2122C83.1961 33.2887 83.0054 33.3273 82.8129 33.3252C82.5808 33.3365 82.35 33.285 82.1452 33.1762C81.9405 33.0673 81.7694 32.9052 81.6504 32.7072V34.5941C81.6513 34.6048 81.6499 34.6156 81.6462 34.6258C81.6425 34.6361 81.6365 34.6453 81.6288 34.653C81.6211 34.6606 81.6118 34.6665 81.6015 34.6702C81.5913 34.6738 81.5803 34.6753 81.5694 34.6744L81.0785 34.7034ZM87.733 31.7653V30.8253C87.7534 30.698 87.7444 30.5677 87.7069 30.4442C87.6694 30.3207 87.6043 30.2073 87.5165 30.1123C87.4286 30.0172 87.3203 29.9431 87.1996 29.8953C87.0788 29.8475 86.9488 29.8274 86.8192 29.8365C86.6885 29.8327 86.5584 29.8562 86.4374 29.9052C86.3163 29.9543 86.2069 30.0278 86.1163 30.1213C86.0256 30.2147 85.9556 30.3261 85.9108 30.4478C85.866 30.5697 85.8473 30.6996 85.856 30.829V31.7561C85.8465 31.8863 85.8644 32.0171 85.9088 32.14C85.9531 32.2628 86.0229 32.3753 86.1135 32.4698C86.2042 32.5645 86.3139 32.6393 86.4354 32.6894C86.5569 32.7395 86.6876 32.7638 86.8192 32.761C87.3911 32.761 87.733 32.4155 87.733 31.7622M85.2841 34.7034C85.2733 34.7044 85.2624 34.703 85.2521 34.6992C85.2418 34.6955 85.2325 34.6896 85.2248 34.682C85.2171 34.6743 85.2111 34.6651 85.2074 34.6548C85.2037 34.6447 85.2023 34.6338 85.2032 34.6231V29.4131C85.2032 29.3575 85.2343 29.3327 85.2904 29.3327H85.7502C85.7615 29.3308 85.7731 29.3315 85.7842 29.3347C85.7953 29.338 85.8054 29.3437 85.8139 29.3515C85.8223 29.3593 85.8288 29.3688 85.8329 29.3795C85.837 29.3903 85.8385 29.4017 85.8374 29.4131V29.8568C85.9602 29.6638 86.1311 29.5055 86.3337 29.3972C86.5362 29.289 86.7635 29.2344 86.9936 29.2388C87.1876 29.2316 87.3809 29.2657 87.5604 29.3391C87.74 29.4124 87.9015 29.5232 88.0341 29.6638C88.1667 29.8045 88.2674 29.9717 88.3291 30.1543C88.3909 30.337 88.4124 30.5305 88.3921 30.7221V31.8271C88.4133 32.0173 88.3935 32.2096 88.3339 32.3916C88.2744 32.5735 88.1767 32.7408 88.0471 32.8825C87.9176 33.0241 87.7591 33.1368 87.5824 33.2132C87.4055 33.2895 87.2145 33.3276 87.0216 33.3252C86.7898 33.3352 86.5595 33.2831 86.355 33.1743C86.1505 33.0656 85.9792 32.9043 85.8591 32.7072V34.5941C85.8602 34.6048 85.8587 34.6156 85.855 34.6258C85.8512 34.6361 85.8453 34.6453 85.8375 34.653C85.8298 34.6606 85.8205 34.6665 85.8103 34.6702C85.8 34.6738 85.789 34.6753 85.7782 34.6744L85.2841 34.7034ZM89.9701 30.8191V31.8178C89.9701 32.0681 90.0704 32.3081 90.2487 32.485C90.4271 32.6618 90.6689 32.7613 90.9211 32.7613C91.1733 32.7613 91.4152 32.6618 91.5936 32.485C91.7719 32.3081 91.8721 32.0681 91.8721 31.8178V30.8191C91.8721 30.569 91.7719 30.329 91.5936 30.1521C91.4152 29.9751 91.1733 29.8757 90.9211 29.8757C90.6689 29.8757 90.4271 29.9751 90.2487 30.1521C90.0704 30.329 89.9701 30.569 89.9701 30.8191ZM92.5244 30.7882V31.8178C92.5244 32.2397 92.3554 32.6444 92.0547 32.9427C91.7539 33.2411 91.3461 33.4086 90.9208 33.4086C90.4955 33.4086 90.0877 33.2411 89.787 32.9427C89.4863 32.6444 89.3173 32.2397 89.3173 31.8178V30.8067C89.3173 30.3848 89.4863 29.9802 89.787 29.6818C90.0877 29.3835 90.4955 29.216 90.9208 29.216C91.3461 29.216 91.7539 29.3835 92.0547 29.6818C92.3554 29.9802 92.5244 30.3848 92.5244 30.8067M95.5016 29.352V29.7876C95.5016 29.8556 95.5016 29.8803 95.4019 29.8803H95.3209C95.0723 29.872 94.8277 29.9437 94.6237 30.0848C94.4198 30.2261 94.2674 30.4291 94.1895 30.6634V33.1683C94.1895 33.2238 94.1522 33.2424 94.1085 33.2424H93.6176C93.6076 33.2434 93.5975 33.2421 93.5879 33.2387C93.5784 33.2353 93.5698 33.2298 93.5626 33.2228C93.5556 33.2157 93.5501 33.2072 93.5466 33.1977C93.5432 33.1883 93.5419 33.1782 93.5429 33.1683V29.4131C93.5429 29.3513 93.5429 29.3327 93.6302 29.3327H94.0774C94.1396 29.3327 94.1709 29.3636 94.1709 29.4193V30.0373C94.2848 29.8086 94.4632 29.6176 94.6843 29.4874C94.9054 29.3573 95.1599 29.2934 95.4168 29.3037C95.5102 29.3037 95.5352 29.3037 95.5352 29.3964M97.3997 28.4076V29.3507H98.2451C98.3074 29.3507 98.3323 29.3816 98.3323 29.4496V29.8012C98.3323 29.8692 98.3323 29.894 98.2451 29.894H97.3997V32.1688C97.3997 32.5205 97.5922 32.6806 97.9529 32.6806H98.2388C98.3011 32.6806 98.3323 32.6806 98.3323 32.7672V33.1676C98.3323 33.2356 98.3323 33.2603 98.2388 33.2603H97.8595C97.7183 33.2807 97.5742 33.2696 97.4378 33.2281C97.3014 33.1864 97.176 33.1153 97.0707 33.0197C96.9654 32.9241 96.8829 32.8065 96.829 32.6754C96.7751 32.5443 96.7514 32.403 96.7593 32.2616V29.9001H96.2186C96.1688 29.9001 96.1376 29.9001 96.1376 29.8074V29.4557C96.1376 29.3877 96.1688 29.3568 96.2186 29.3568H96.7655V28.4082C96.7655 28.3587 96.7655 28.3278 96.859 28.3278H97.3062C97.381 28.3278 97.3997 28.3273 97.3997 28.4076ZM104.522 29.08C104.522 29.1542 104.522 29.2097 104.416 29.2401L103.72 29.4928C103.703 29.5018 103.684 29.5068 103.664 29.5076C103.645 29.5083 103.625 29.5047 103.608 29.497C103.59 29.4893 103.574 29.4777 103.561 29.4631C103.548 29.4485 103.539 29.4312 103.533 29.4125C103.475 29.256 103.366 29.1231 103.223 29.035C103.08 28.9467 102.912 28.9083 102.744 28.9255C102.316 28.9255 102.036 29.1288 102.036 29.4372C102.036 29.7456 102.253 29.8747 103.219 30.2078C104.186 30.541 104.574 30.9971 104.574 31.753C104.574 32.6596 103.791 33.35 102.66 33.35C102.242 33.4002 101.82 33.2995 101.471 33.0663C101.122 32.8331 100.868 32.483 100.758 32.0798C100.752 32.0642 100.75 32.0474 100.751 32.0306C100.752 32.014 100.756 31.9976 100.764 31.9826C100.772 31.9676 100.782 31.9544 100.795 31.9436C100.808 31.9327 100.823 31.9247 100.839 31.9198L101.591 31.6726C101.691 31.6417 101.74 31.6726 101.765 31.7715C101.806 31.9674 101.921 32.1404 102.086 32.2553C102.251 32.3701 102.454 32.4181 102.654 32.3895C103.163 32.3895 103.431 32.1738 103.431 31.8531C103.431 31.5323 103.238 31.4205 102.455 31.1504C101.33 30.7498 100.901 30.3055 100.901 29.4817C100.918 29.2625 100.978 29.0487 101.079 28.853C101.18 28.6573 101.32 28.4836 101.489 28.3423C101.659 28.201 101.856 28.0947 102.067 28.03C102.279 27.9652 102.502 27.9431 102.722 27.9651C103.108 27.927 103.496 28.0187 103.823 28.2257C104.15 28.4326 104.397 28.7427 104.525 29.106M106.762 28.4644V29.3525H107.51C107.526 29.3505 107.542 29.3522 107.557 29.3574C107.573 29.3625 107.587 29.3712 107.598 29.3825C107.61 29.3938 107.618 29.4076 107.623 29.4227C107.629 29.438 107.63 29.4541 107.628 29.47V30.1176C107.629 30.1331 107.627 30.1485 107.621 30.1628C107.615 30.1773 107.607 30.1903 107.595 30.2008C107.584 30.2115 107.571 30.2195 107.556 30.2244C107.541 30.2292 107.525 30.2307 107.51 30.229H106.762V31.986C106.762 32.214 106.887 32.3437 107.185 32.3437H107.508C107.583 32.3437 107.626 32.3808 107.626 32.4488V33.1806C107.626 33.2547 107.583 33.2856 107.508 33.2856H107.007C106.112 33.2856 105.69 32.8172 105.69 32.1263V30.2104H105.23C105.214 30.2122 105.199 30.2106 105.184 30.2058C105.169 30.201 105.156 30.193 105.144 30.1823C105.133 30.1717 105.124 30.1587 105.119 30.1444C105.113 30.13 105.11 30.1145 105.111 30.0991V29.4502C105.109 29.4343 105.111 29.4182 105.116 29.403C105.122 29.3878 105.13 29.3741 105.142 29.3627C105.153 29.3514 105.167 29.3427 105.182 29.3376C105.198 29.3324 105.214 29.3307 105.23 29.3327H105.708V28.4638C105.706 28.4493 105.708 28.4345 105.712 28.4206C105.717 28.4067 105.724 28.394 105.735 28.3833C105.745 28.3726 105.757 28.3644 105.771 28.3591C105.785 28.3537 105.799 28.3515 105.814 28.3526H106.66C106.728 28.3526 106.759 28.3958 106.759 28.4638M110.501 31.9291V31.5583C110.293 31.546 110.085 31.546 109.878 31.5583C109.474 31.6077 109.255 31.7307 109.255 32.0391C109.255 32.3475 109.442 32.4717 109.753 32.4717C109.924 32.4741 110.091 32.4203 110.228 32.3188C110.365 32.2174 110.465 32.0738 110.511 31.9105M111.574 30.554V33.1435C111.574 33.1578 111.571 33.1721 111.566 33.1852C111.56 33.1984 111.551 33.2103 111.541 33.2201C111.53 33.23 111.518 33.2375 111.504 33.2424C111.491 33.2473 111.476 33.2494 111.462 33.2486H110.666C110.652 33.2494 110.638 33.2473 110.624 33.2424C110.61 33.2375 110.598 33.23 110.588 33.2201C110.577 33.2103 110.569 33.1984 110.563 33.1852C110.557 33.1721 110.554 33.1578 110.554 33.1435V32.7183C110.443 32.9093 110.283 33.0674 110.089 33.1761C109.896 33.2847 109.677 33.3401 109.454 33.3363C109.287 33.3497 109.119 33.3271 108.962 33.2696C108.804 33.2123 108.662 33.1217 108.543 33.0042C108.425 32.8865 108.333 32.7448 108.276 32.5887C108.218 32.4327 108.195 32.2661 108.208 32.1003C108.208 31.3791 108.668 30.9532 109.781 30.8643C110.02 30.8426 110.262 30.8426 110.501 30.8643V30.5848C110.512 30.5114 110.505 30.4365 110.481 30.3662C110.457 30.2958 110.417 30.2321 110.364 30.18C110.311 30.1277 110.246 30.0887 110.175 30.0658C110.104 30.0431 110.028 30.0371 109.954 30.0484C109.833 30.0322 109.711 30.0602 109.609 30.1272C109.507 30.1942 109.433 30.2955 109.401 30.4125C109.364 30.499 109.339 30.5175 109.259 30.4928L108.463 30.2956C108.382 30.2956 108.376 30.2276 108.395 30.1721C108.5 29.6047 109.018 29.1918 109.992 29.1918C110.966 29.1918 111.564 29.6603 111.564 30.5484M114.808 29.3525V30.1232C114.808 30.216 114.771 30.2468 114.678 30.2468H114.561C114.333 30.2183 114.104 30.2726 113.913 30.3996C113.724 30.5266 113.587 30.7176 113.528 30.9372V33.1435C113.53 33.1567 113.529 33.1701 113.526 33.1828C113.521 33.1955 113.515 33.2073 113.506 33.2172C113.497 33.2272 113.487 33.2352 113.474 33.2405C113.462 33.246 113.448 33.2487 113.435 33.2486H112.528C112.514 33.2487 112.501 33.246 112.489 33.2405C112.476 33.2352 112.465 33.2272 112.456 33.2172C112.447 33.2073 112.44 33.1955 112.437 33.1828C112.433 33.1701 112.433 33.1567 112.434 33.1435V29.3822C112.433 29.3684 112.435 29.3545 112.44 29.3416C112.445 29.3287 112.453 29.3172 112.463 29.3076C112.473 29.2982 112.485 29.2911 112.499 29.2868C112.512 29.2826 112.526 29.2814 112.54 29.2833H113.367C113.381 29.2823 113.396 29.2845 113.409 29.2898C113.424 29.2952 113.436 29.3034 113.446 29.3141C113.456 29.3247 113.464 29.3374 113.469 29.3514C113.473 29.3653 113.474 29.3801 113.472 29.3946V29.9681C113.577 29.7528 113.743 29.5725 113.949 29.449C114.156 29.3253 114.394 29.2637 114.635 29.2716C114.778 29.2716 114.808 29.2716 114.808 29.3952M116.934 28.4644V29.3525H117.682C117.698 29.3515 117.713 29.354 117.727 29.3595C117.741 29.3652 117.755 29.374 117.766 29.3851C117.776 29.3963 117.784 29.4097 117.79 29.4244C117.794 29.4391 117.796 29.4546 117.794 29.47V30.1176C117.796 30.1327 117.794 30.1481 117.79 30.1625C117.785 30.177 117.776 30.1901 117.766 30.2008C117.755 30.2116 117.741 30.2197 117.727 30.2246C117.712 30.2295 117.697 30.231 117.682 30.229H116.934V31.986C116.934 32.214 117.059 32.3437 117.351 32.3437H117.68C117.694 32.342 117.709 32.3433 117.723 32.3478C117.737 32.3524 117.75 32.36 117.762 32.37C117.772 32.3801 117.781 32.3923 117.785 32.406C117.791 32.4196 117.793 32.4343 117.792 32.4488V33.1806C117.792 33.2547 117.748 33.2856 117.68 33.2856H117.177C116.281 33.2856 115.865 32.8172 115.865 32.1263V30.2104H115.399C115.384 30.2124 115.368 30.211 115.354 30.2061C115.339 30.2012 115.327 30.1931 115.315 30.1823C115.304 30.1715 115.296 30.1584 115.291 30.144C115.286 30.1295 115.285 30.1142 115.287 30.0991V29.4502C115.285 29.4348 115.286 29.4193 115.292 29.4046C115.296 29.39 115.304 29.3765 115.315 29.3653C115.326 29.3542 115.339 29.3454 115.354 29.3397C115.368 29.3342 115.384 29.3317 115.399 29.3327H115.878V28.4638C115.875 28.4487 115.877 28.4334 115.882 28.419C115.887 28.4045 115.895 28.3914 115.906 28.3806C115.917 28.3698 115.93 28.3617 115.945 28.3568C115.959 28.352 115.974 28.3505 115.99 28.3526H116.835C116.85 28.3525 116.863 28.3554 116.877 28.3611C116.889 28.3668 116.901 28.3752 116.91 28.3857C116.919 28.3963 116.927 28.4087 116.932 28.4222C116.935 28.4356 116.936 28.4498 116.935 28.4638M121.658 30.1837C121.658 30.2456 121.658 30.3012 121.571 30.3253L120.907 30.5595C120.831 30.5595 120.795 30.5595 120.763 30.4792C120.713 30.343 120.619 30.2272 120.494 30.1502C120.37 30.0732 120.224 30.0394 120.079 30.054C119.736 30.054 119.538 30.1837 119.538 30.381C119.538 30.5781 119.68 30.6523 120.445 30.8556C121.334 31.0898 121.692 31.4736 121.692 32.0916C121.692 32.8562 121.068 33.3277 120.075 33.3277C119.082 33.3277 118.559 32.9761 118.353 32.3722C118.353 32.2857 118.353 32.2431 118.459 32.1998L119.044 31.9161C119.131 31.8728 119.179 31.9161 119.223 32.0026C119.288 32.1592 119.401 32.2911 119.548 32.3787C119.694 32.4664 119.864 32.5053 120.033 32.4896C120.437 32.4896 120.657 32.3598 120.657 32.1442C120.657 31.9285 120.433 31.8234 119.718 31.6263C118.841 31.3982 118.473 31.0083 118.473 30.3902C118.473 29.6381 119.095 29.1542 120.026 29.1542C120.364 29.1202 120.705 29.1962 120.996 29.3707C121.288 29.5453 121.515 29.8088 121.642 30.122M128.356 28.119V33.1497C128.356 33.2115 128.356 33.2547 128.243 33.2547H127.36C127.345 33.2556 127.331 33.2535 127.317 33.2486C127.304 33.2437 127.292 33.2361 127.282 33.2263C127.27 33.2164 127.263 33.2045 127.257 33.1914C127.251 33.1782 127.248 33.1641 127.248 33.1497V31.164H125.427V33.1621C125.428 33.1766 125.426 33.1913 125.42 33.205C125.416 33.2186 125.407 33.2308 125.397 33.241C125.385 33.251 125.373 33.2585 125.359 33.2631C125.344 33.2676 125.329 33.269 125.315 33.2671H124.408C124.393 33.268 124.379 33.2658 124.365 33.261C124.352 33.2561 124.339 33.2485 124.328 33.2386C124.318 33.2287 124.309 33.217 124.303 33.2037C124.298 33.1906 124.296 33.1764 124.296 33.1621V28.119C124.296 28.1041 124.298 28.0893 124.305 28.0757C124.31 28.0621 124.319 28.0498 124.33 28.04C124.342 28.03 124.355 28.0225 124.37 28.0181C124.383 28.0135 124.399 28.0122 124.413 28.0138H125.315C125.329 28.0121 125.344 28.0134 125.359 28.018C125.373 28.0225 125.385 28.0301 125.397 28.0401C125.407 28.0502 125.416 28.0624 125.42 28.0761C125.426 28.0897 125.428 28.1044 125.427 28.119V30.1164H127.248V28.119C127.248 28.1046 127.251 28.0904 127.257 28.0773C127.263 28.0641 127.27 28.0523 127.282 28.0424C127.292 28.0325 127.304 28.025 127.317 28.0201C127.331 28.0152 127.345 28.0131 127.36 28.0138H128.262C128.342 28.0138 128.374 28.0572 128.374 28.119M130.275 30.7765V30.9118H131.669V30.7765C131.675 30.6812 131.663 30.5854 131.632 30.4951C131.6 30.4047 131.55 30.3218 131.485 30.2516C131.42 30.1814 131.34 30.1254 131.252 30.0871C131.163 30.0487 131.068 30.029 130.972 30.029C130.876 30.029 130.78 30.0487 130.692 30.0871C130.603 30.1254 130.524 30.1814 130.459 30.2516C130.394 30.3218 130.344 30.4047 130.312 30.4951C130.281 30.5854 130.269 30.6812 130.275 30.7765ZM130.275 31.6152V31.7653C130.26 31.8632 130.267 31.9635 130.298 32.0577C130.329 32.1521 130.383 32.2375 130.453 32.3071C130.525 32.3766 130.612 32.4281 130.708 32.4572C130.803 32.4863 130.905 32.4921 131.002 32.4742C131.159 32.4981 131.319 32.4698 131.457 32.3941C131.596 32.3182 131.704 32.1991 131.767 32.0552C131.835 31.944 131.867 31.9315 131.979 31.981L132.55 32.2708C132.669 32.3265 132.674 32.3821 132.625 32.4927C132.468 32.7788 132.231 33.0133 131.941 33.167C131.652 33.3207 131.324 33.3871 130.997 33.358C130.769 33.3878 130.54 33.3682 130.321 33.3002C130.103 33.2322 129.902 33.1175 129.733 32.9644C129.564 32.8112 129.431 32.6232 129.343 32.4136C129.256 32.204 129.216 31.9778 129.226 31.7511V30.8253C129.215 30.6 129.254 30.3748 129.34 30.1661C129.425 29.9572 129.557 29.7696 129.724 29.6165C129.891 29.4633 130.089 29.3483 130.307 29.2795C130.523 29.2107 130.752 29.19 130.978 29.2184C131.197 29.1967 131.419 29.2224 131.627 29.2935C131.835 29.3647 132.026 29.4798 132.186 29.631C132.345 29.7822 132.469 29.9656 132.551 30.1691C132.632 30.3724 132.668 30.5908 132.656 30.8092V31.4273C132.656 31.5323 132.618 31.6058 132.464 31.6058L130.275 31.6152ZM135.807 29.3525V30.1232C135.807 30.216 135.776 30.2468 135.676 30.2468H135.564C135.337 30.2183 135.107 30.2726 134.918 30.3996C134.727 30.5266 134.591 30.7176 134.532 30.9372V33.1435C134.534 33.1565 134.531 33.1695 134.527 33.1818C134.523 33.1942 134.517 33.2055 134.508 33.2153C134.499 33.2251 134.489 33.2331 134.476 33.2387C134.465 33.2444 134.452 33.2478 134.439 33.2486H133.526C133.512 33.2487 133.499 33.246 133.486 33.2405C133.474 33.2352 133.463 33.2272 133.454 33.2172C133.445 33.2073 133.439 33.1955 133.435 33.1828C133.431 33.1701 133.43 33.1567 133.431 33.1435V29.3822C133.43 29.3684 133.433 29.3545 133.438 29.3416C133.443 29.3287 133.451 29.3172 133.461 29.3076C133.471 29.2982 133.483 29.2911 133.496 29.2868C133.51 29.2826 133.523 29.2814 133.538 29.2833H134.364C134.452 29.2833 134.47 29.339 134.47 29.3946V29.9681C134.575 29.7528 134.741 29.5725 134.947 29.449C135.154 29.3253 135.391 29.2637 135.632 29.2716C135.781 29.2716 135.807 29.2716 135.807 29.3952M137.385 30.7765V30.9118H138.778V30.7765C138.786 30.6812 138.774 30.5854 138.743 30.4951C138.711 30.4047 138.661 30.3218 138.596 30.2516C138.53 30.1814 138.45 30.1254 138.363 30.0871C138.274 30.0487 138.179 30.029 138.083 30.029C137.987 30.029 137.891 30.0487 137.803 30.0871C137.714 30.1254 137.635 30.1814 137.57 30.2516C137.504 30.3218 137.455 30.4047 137.422 30.4951C137.391 30.5854 137.377 30.6812 137.385 30.7765ZM137.386 31.6152V31.7653C137.371 31.8632 137.377 31.9635 137.409 32.0577C137.44 32.1521 137.493 32.2375 137.564 32.3071C137.636 32.3766 137.722 32.4281 137.819 32.4572C137.914 32.4863 138.015 32.4921 138.113 32.4742C138.27 32.4984 138.431 32.4704 138.57 32.3946C138.71 32.3188 138.82 32.1995 138.884 32.0552C138.946 31.944 138.978 31.9315 139.089 31.981L139.661 32.2708C139.78 32.3265 139.785 32.3821 139.736 32.4927C139.579 32.7788 139.341 33.0133 139.052 33.167C138.763 33.3207 138.435 33.3871 138.107 33.358C137.881 33.386 137.652 33.3647 137.435 33.2958C137.218 33.227 137.02 33.112 136.852 32.9591C136.685 32.8061 136.553 32.6188 136.466 32.4102C136.379 32.2016 136.339 31.9766 136.348 31.7511V30.8253C136.338 30.6 136.376 30.3748 136.462 30.1661C136.548 29.9572 136.679 29.7696 136.847 29.6165C137.014 29.4633 137.213 29.3483 137.43 29.2795C137.646 29.2107 137.876 29.19 138.101 29.2184C138.32 29.1967 138.542 29.2224 138.75 29.2935C138.959 29.3647 139.149 29.4798 139.309 29.631C139.468 29.7822 139.593 29.9656 139.674 30.1691C139.755 30.3724 139.791 30.5908 139.78 30.8092V31.4273C139.78 31.5323 139.742 31.6058 139.587 31.6058L137.386 31.6152Z" fill="white" />
      </g>
    </g>
  </g>
  <defs>
    <clipPath id="clip0_4082_1837">
      <rect width="140" height="40" fill="white" transform="translate(0 0.3125)" />
    </clipPath>
  </defs>
</svg>