<svg width="60" height="60" viewBox="0 0 60 60" fill="none" xmlns="http://www.w3.org/2000/svg">
<path d="M35.5786 49.9583C33.909 50.5034 31.7755 50.7379 30.0255 50.74C18.2298 50.754 8.67736 41.2111 8.67865 29.4161C8.67992 17.9349 18.2388 8.17602 29.7696 8.20377C30.2564 8.16013 30.7534 8.19396 31.2404 8.22232C39.18 8.68451 46.1381 13.6696 49.4787 20.8711C51.5519 25.3407 52.0377 31.1774 50.3323 35.842C47.5 32.3602 42.7114 31.66 38.6092 33.1162C36.6622 32.2843 35.143 31.1935 32.7963 31.069C40.2135 28.7224 40.1503 17.8516 32.6801 15.4144C28.1824 13.947 23.4525 16.4804 22.0089 20.9603C20.7164 24.9714 22.9468 29.7742 26.9781 31.069C23.7888 31.281 20.358 33.3813 18.1281 35.6483C17.566 36.2708 16.1613 37.6183 16.6207 38.5823C16.892 39.1517 17.6651 39.4075 18.1937 39.0309C18.573 38.7605 19.1403 37.9455 19.4958 37.5452C23.4108 33.1353 29.9126 31.6457 35.3696 33.9639C35.7376 34.1202 36.0886 34.3174 36.472 34.4356C34.068 35.9157 32.5609 39.3057 32.4254 42.0264C32.268 45.1899 33.4975 47.6645 35.5786 49.9583Z" fill="#A3FFEA"/>
<path d="M30.4582 29.5109C27.0469 29.7725 24.069 27.2199 23.806 23.8087C23.5431 20.3975 26.0945 17.4187 29.5056 17.1543C32.9187 16.8897 35.8996 19.4429 36.1628 22.8561C36.4258 26.2693 33.8715 29.2493 30.4582 29.5109Z" fill="#A3FFEA"/>
<path d="M43.107 50.6245C38.6668 50.8916 34.8493 47.5122 34.5756 43.0726C34.302 38.6328 37.6756 34.8103 42.1147 34.53C46.5635 34.2491 50.3959 37.6313 50.6702 42.0804C50.9445 46.5295 47.5565 50.3569 43.107 50.6245ZM42.4478 37.7808C41.4328 38.0441 41.5726 38.9477 41.5733 39.774L41.5763 41.4874L39.6049 41.4797C39.3115 41.4797 38.9738 41.4406 38.6892 41.5054C37.4489 41.788 37.5911 43.4018 38.7476 43.7054C39.1969 43.8234 40.9925 43.759 41.5763 43.7631L41.5705 45.4102C41.5666 46.202 41.6197 47.3675 42.8157 47.2459C44.2505 46.8259 43.7405 45.0158 43.767 43.7631L45.7425 43.7634C46.2408 43.7639 46.8688 43.8729 47.2644 43.4897C47.7324 43.0363 47.6146 41.672 46.9158 41.5199C46.5612 41.4426 46.1377 41.484 45.7749 41.4842L43.767 41.4874L43.7673 39.7216C43.7666 38.688 43.7984 37.6608 42.4478 37.7808Z" fill="#A3FFEA"/>
</svg>
