<svg width="53" height="54" viewBox="0 0 53 54" fill="none" xmlns="http://www.w3.org/2000/svg">
  <path d="M40.9545 9.9542H43.3636V12.363C43.3636 13.0018 43.6174 13.6145 44.0692 14.0663C44.5209 14.518 45.1337 14.7718 45.7726 14.7718C46.4116 14.7718 47.0243 14.518 47.4761 14.0663C47.9279 13.6145 48.1817 13.0018 48.1817 12.363V9.9542H50.5908C51.2297 9.9542 51.8425 9.70042 52.2943 9.24868C52.7461 8.79694 52.9999 8.18426 52.9999 7.54541C52.9999 6.90655 52.7461 6.29387 52.2943 5.84213C51.8425 5.39039 51.2297 5.13661 50.5908 5.13661H48.1817V2.72782C48.1817 2.08897 47.9279 1.47628 47.4761 1.02454C47.0243 0.572806 46.4116 0.319023 45.7726 0.319023C45.1337 0.319023 44.5209 0.572806 44.0692 1.02454C43.6174 1.47628 43.3636 2.08897 43.3636 2.72782V5.13661H40.9545C40.3155 5.13661 39.7028 5.39039 39.251 5.84213C38.7992 6.29387 38.5454 6.90655 38.5454 7.54541C38.5454 8.18426 38.7992 8.79694 39.251 9.24868C39.7028 9.70042 40.3155 9.9542 40.9545 9.9542ZM14.4545 14.7718V38.8597C14.4545 39.4986 14.7083 40.1113 15.1601 40.563C15.6119 41.0147 16.2247 41.2685 16.8636 41.2685C17.5025 41.2685 18.1153 41.0147 18.5671 40.563C19.0189 40.1113 19.2727 39.4986 19.2727 38.8597V14.7718C19.2727 14.1329 19.0189 13.5202 18.5671 13.0685C18.1153 12.6168 17.5025 12.363 16.8636 12.363C16.2247 12.363 15.6119 12.6168 15.1601 13.0685C14.7083 13.5202 14.4545 14.1329 14.4545 14.7718ZM49.6272 19.5894C49.3171 19.6526 49.0225 19.7763 48.7603 19.9533C48.498 20.1304 48.2732 20.3574 48.0987 20.6213C47.9242 20.8853 47.8034 21.181 47.7433 21.4917C47.6831 21.8023 47.6847 22.1217 47.7481 22.4318C48.6887 26.9993 48.1312 31.7484 46.1584 35.9741C44.1855 40.1997 40.9025 43.6766 36.7967 45.8888C32.6909 48.1009 27.9811 48.9302 23.3665 48.2537C18.7519 47.5772 14.4784 45.4309 11.1805 42.1334C7.88258 38.8358 5.73601 34.5629 5.05941 29.9489C4.38282 25.3348 5.21227 20.6256 7.42465 16.5202C9.63702 12.4149 13.1144 9.13231 17.3405 7.15972C21.5667 5.18713 26.3164 4.62971 30.8845 5.57019C31.5234 5.69796 32.1869 5.56672 32.7291 5.20533C33.2712 4.84394 33.6476 4.28201 33.7754 3.64316C33.9032 3.00431 33.7719 2.34086 33.4105 1.79878C33.049 1.2567 32.4871 0.880376 31.8481 0.752606C30.0851 0.42417 28.2929 0.27887 26.5 0.319023C21.2588 0.319023 16.1353 1.87303 11.7774 4.78453C7.41948 7.69603 4.02292 11.8343 2.0172 16.6759C0.0114821 21.5175 -0.513305 26.8451 0.509201 31.985C1.53171 37.1249 4.05558 41.8461 7.76167 45.5518C11.4677 49.2574 16.1896 51.781 21.3301 52.8034C26.4706 53.8257 31.7988 53.301 36.641 51.2955C41.4833 49.2901 45.622 45.8939 48.5339 41.5366C51.4457 37.1792 52.9999 32.0563 52.9999 26.8158C53.005 25.0358 52.8274 23.2601 52.4699 21.5164C52.4122 21.2021 52.2925 20.9023 52.1178 20.6347C51.9431 20.367 51.7168 20.1368 51.4523 19.9575C51.1877 19.7781 50.8901 19.6532 50.5767 19.59C50.2634 19.5268 49.9406 19.5266 49.6272 19.5894ZM24.0909 19.5894V21.9982C24.1015 23.7808 24.7707 25.4966 25.97 26.8158C24.7707 28.1349 24.1015 29.8507 24.0909 31.6333V34.0421C24.0909 35.9587 24.8523 37.7968 26.2077 39.152C27.5631 40.5072 29.4013 41.2685 31.3181 41.2685H33.7272C35.644 41.2685 37.4823 40.5072 38.8377 39.152C40.193 37.7968 40.9545 35.9587 40.9545 34.0421V31.6333C40.9438 29.8507 40.2746 28.1349 39.0754 26.8158C40.2746 25.4966 40.9438 23.7808 40.9545 21.9982V19.5894C40.9545 17.6728 40.193 15.8348 38.8377 14.4796C37.4823 13.1243 35.644 12.363 33.7272 12.363H31.3181C29.4013 12.363 27.5631 13.1243 26.2077 14.4796C24.8523 15.8348 24.0909 17.6728 24.0909 19.5894ZM36.1363 34.0421C36.1363 34.681 35.8825 35.2937 35.4307 35.7454C34.9789 36.1972 34.3661 36.4509 33.7272 36.4509H31.3181C30.6792 36.4509 30.0664 36.1972 29.6146 35.7454C29.1629 35.2937 28.909 34.681 28.909 34.0421V31.6333C28.909 30.9945 29.1629 30.3818 29.6146 29.9301C30.0664 29.4783 30.6792 29.2246 31.3181 29.2246H33.7272C34.3661 29.2246 34.9789 29.4783 35.4307 29.9301C35.8825 30.3818 36.1363 30.9945 36.1363 31.6333V34.0421ZM36.1363 19.5894V21.9982C36.1363 22.637 35.8825 23.2497 35.4307 23.7014C34.9789 24.1532 34.3661 24.407 33.7272 24.407H31.3181C30.6792 24.407 30.0664 24.1532 29.6146 23.7014C29.1629 23.2497 28.909 22.637 28.909 21.9982V19.5894C28.909 18.9505 29.1629 18.3378 29.6146 17.8861C30.0664 17.4344 30.6792 17.1806 31.3181 17.1806H33.7272C34.3661 17.1806 34.9789 17.4344 35.4307 17.8861C35.8825 18.3378 36.1363 18.9505 36.1363 19.5894Z" fill="white" />
</svg>