<svg width="48" height="48" viewBox="0 0 48 48" fill="none" xmlns="http://www.w3.org/2000/svg">
<path d="M16.7734 25.0078C16.9922 25.0078 17.2109 25 17.4297 25C18.0918 25.4646 18.7984 25.8624 19.5391 26.1875C19 31.1094 17.2188 32.9532 16.7109 33.375H16.0703C15.4649 33.3924 14.8909 33.6487 14.4737 34.0878C14.0566 34.5269 13.8301 35.1133 13.8437 35.7188C13.8472 35.9845 13.892 36.2481 13.9766 36.5C13.4529 36.4838 12.9314 36.5728 12.4427 36.7617C11.9541 36.9506 11.5083 37.2356 11.1317 37.5998C10.7551 37.964 10.4554 38.4 10.2503 38.8821C10.0452 39.3641 9.93882 39.8824 9.9375 40.4063V46.6563C9.9375 46.8635 10.0198 47.0622 10.1663 47.2087C10.3128 47.3552 10.5115 47.4375 10.7187 47.4375H37.2812C37.4884 47.4375 37.6872 47.3552 37.8337 47.2087C37.9802 47.0622 38.0625 46.8635 38.0625 46.6563V40.4063C38.0612 39.8824 37.9548 39.3641 37.7497 38.8821C37.5446 38.4 37.2449 37.964 36.8683 37.5998C36.4917 37.2356 36.0459 36.9506 35.5573 36.7617C35.0686 36.5728 34.5471 36.4838 34.0234 36.5C34.108 36.2481 34.1528 35.9845 34.1562 35.7188C34.1699 35.1133 33.9434 34.5269 33.5263 34.0878C33.1091 33.6487 32.5351 33.3924 31.9297 33.375H31.2891C30.7734 32.9375 29 31.1016 28.4609 26.1875C29.2016 25.8624 29.9082 25.4646 30.5703 25C30.7891 25 31.0078 25.0078 31.2266 25.0078C36.6875 25.0078 40.6172 23.6016 42.8984 20.8594C48.0547 15.3282 47.4844 6.25004 47.4531 5.86722C47.4116 5.27583 47.1475 4.72214 46.7141 4.31768C46.2806 3.91323 45.71 3.68806 45.1172 3.68754H39.5625C39.5781 3.46097 39.5859 3.23441 39.5937 3.00785C39.6047 2.68903 39.5516 2.37126 39.4375 2.07335C39.3234 1.77544 39.1508 1.50344 38.9297 1.27347C38.7126 1.04714 38.4518 0.867381 38.163 0.745153C37.8742 0.622925 37.5636 0.56079 37.25 0.562536H10.75C10.4364 0.56079 10.1258 0.622925 9.837 0.745153C9.54821 0.867381 9.28735 1.04714 9.07031 1.27347C8.84923 1.50344 8.67655 1.77544 8.56248 2.07335C8.44842 2.37126 8.39529 2.68903 8.40625 3.00785C8.41406 3.23441 8.42187 3.46097 8.4375 3.68754H2.88281C2.28997 3.68806 1.71935 3.91323 1.2859 4.31768C0.852446 4.72214 0.588374 5.27583 0.546875 5.86722C0.515625 6.25004 -0.0546875 15.3282 5.07812 20.8282C7.38281 23.6016 11.3125 25.0078 16.7734 25.0078ZM34.1562 38.0625C34.7773 38.0644 35.3723 38.3119 35.8115 38.7511C36.2506 39.1902 36.4981 39.7853 36.5 40.4063V45.875H11.5V40.4063C11.5019 39.7853 11.7494 39.1902 12.1885 38.7511C12.6277 38.3119 13.2227 38.0644 13.8437 38.0625H34.1562ZM25.5625 22.8282C25.5625 22.6736 25.6083 22.5226 25.6942 22.3941C25.78 22.2656 25.902 22.1655 26.0448 22.1064C26.1875 22.0472 26.3446 22.0318 26.4962 22.0619C26.6477 22.0921 26.7869 22.1665 26.8962 22.2757C27.0054 22.385 27.0798 22.5242 27.11 22.6757C27.1401 22.8273 27.1247 22.9844 27.0655 23.1271C27.0064 23.2699 26.9063 23.3919 26.7778 23.4777C26.6493 23.5636 26.4983 23.6094 26.3437 23.6094C26.1365 23.6094 25.9378 23.5271 25.7913 23.3806C25.6448 23.2341 25.5625 23.0354 25.5625 22.8282ZM31.8984 19.2188C31.2011 20.2316 30.3708 21.1461 29.4297 21.9375C29.3502 22.0027 29.2586 22.0515 29.1602 22.0813C29.0618 22.1111 28.9585 22.1211 28.8562 22.111C28.754 22.1008 28.6547 22.0706 28.5641 22.0221C28.4734 21.9736 28.3933 21.9077 28.3281 21.8282C28.263 21.7486 28.2141 21.6571 28.1844 21.5587C28.1546 21.4603 28.1445 21.357 28.1547 21.2547C28.1648 21.1524 28.195 21.0532 28.2436 20.9625C28.2921 20.8719 28.358 20.7917 28.4375 20.7266C29.2704 20.0276 30.0037 19.2181 30.6172 18.3203C30.6759 18.2364 30.7507 18.165 30.8372 18.1101C30.9237 18.0552 31.0202 18.018 31.1211 18.0006C31.2221 17.9832 31.3255 17.9859 31.4253 18.0086C31.5252 18.0313 31.6196 18.0735 31.7031 18.1328C31.8728 18.2511 31.9886 18.4319 32.0253 18.6354C32.0619 18.839 32.0163 19.0488 31.8984 19.2188ZM39.1016 8.37504H42.75C42.5937 10.9922 41.9062 15.0313 39.4531 17.6797C38.2877 18.8912 36.7709 19.7056 35.1172 20.0078C37.2081 16.4349 38.5628 12.4796 39.1016 8.37504ZM15.5078 8.2891C15.8442 7.83791 16.2799 7.47009 16.7811 7.21407C17.2823 6.95804 17.8357 6.82066 18.3984 6.81254H29.6016C30.1643 6.82066 30.7177 6.95804 31.2189 7.21407C31.7201 7.47009 32.1557 7.83791 32.4922 8.2891C32.8947 8.81104 33.1705 9.41929 33.2979 10.066C33.4254 10.7126 33.4009 11.38 33.2266 12.0157C33.0459 12.6575 32.7122 13.246 32.2542 13.7306C31.7962 14.2152 31.2275 14.5815 30.5969 14.7982C29.9663 15.0148 29.2925 15.0752 28.6334 14.9743C27.9743 14.8734 27.3494 14.6141 26.8125 14.2188C26.0052 13.6006 25.0168 13.2656 24 13.2656C22.9832 13.2656 21.9948 13.6006 21.1875 14.2188C20.7219 14.5598 20.1903 14.7998 19.6266 14.9236C19.063 15.0473 18.4797 15.0521 17.9141 14.9375C17.172 14.7876 16.4859 14.4353 15.9316 13.9196C15.3773 13.4039 14.9765 12.745 14.7734 12.0157C14.5991 11.38 14.5746 10.7126 14.7021 10.066C14.8295 9.41929 15.1053 8.81104 15.5078 8.2891ZM8.89844 8.37504C9.43719 12.4796 10.7919 16.4349 12.8828 20.0078C11.2256 19.7044 9.70591 18.8872 8.53906 17.6719C6.09375 15.0313 5.40625 10.9922 5.25 8.37504H8.89844Z" fill="url(#paint0_linear_2013_500)"/>
<path d="M27.9063 11.5C28.3378 11.5 28.6876 11.1502 28.6876 10.7188C28.6876 10.2873 28.3378 9.9375 27.9063 9.9375C27.4748 9.9375 27.1251 10.2873 27.1251 10.7188C27.1251 11.1502 27.4748 11.5 27.9063 11.5Z" fill="url(#paint1_linear_2013_500)"/>
<path d="M31.0313 11.5C31.4628 11.5 31.8126 11.1502 31.8126 10.7188C31.8126 10.2873 31.4628 9.9375 31.0313 9.9375C30.5998 9.9375 30.2501 10.2873 30.2501 10.7188C30.2501 11.1502 30.5998 11.5 31.0313 11.5Z" fill="url(#paint2_linear_2013_500)"/>
<path d="M29.4688 9.9375C29.9003 9.9375 30.2501 9.58772 30.2501 9.15625C30.2501 8.72478 29.9003 8.375 29.4688 8.375C29.0373 8.375 28.6876 8.72478 28.6876 9.15625C28.6876 9.58772 29.0373 9.9375 29.4688 9.9375Z" fill="url(#paint3_linear_2013_500)"/>
<path d="M29.4688 13.0625C29.9003 13.0625 30.2501 12.7127 30.2501 12.2812C30.2501 11.8498 29.9003 11.5 29.4688 11.5C29.0373 11.5 28.6876 11.8498 28.6876 12.2812C28.6876 12.7127 29.0373 13.0625 29.4688 13.0625Z" fill="url(#paint4_linear_2013_500)"/>
<path d="M16.9688 11.5H17.7501V12.2812C17.7501 12.4885 17.8324 12.6872 17.9789 12.8337C18.1254 12.9802 18.3241 13.0625 18.5313 13.0625C18.7385 13.0625 18.9372 12.9802 19.0837 12.8337C19.2303 12.6872 19.3126 12.4885 19.3126 12.2812V11.5H20.0938C20.301 11.5 20.4997 11.4177 20.6462 11.2712C20.7928 11.1247 20.8751 10.926 20.8751 10.7188C20.8751 10.5115 20.7928 10.3128 20.6462 10.1663C20.4997 10.0198 20.301 9.9375 20.0938 9.9375H19.3126V9.15625C19.3126 8.94905 19.2303 8.75034 19.0837 8.60382C18.9372 8.45731 18.7385 8.375 18.5313 8.375C18.3241 8.375 18.1254 8.45731 17.9789 8.60382C17.8324 8.75034 17.7501 8.94905 17.7501 9.15625V9.9375H16.9688C16.7616 9.9375 16.5629 10.0198 16.4164 10.1663C16.2699 10.3128 16.1876 10.5115 16.1876 10.7188C16.1876 10.926 16.2699 11.1247 16.4164 11.2712C16.5629 11.4177 16.7616 11.5 16.9688 11.5Z" fill="url(#paint5_linear_2013_500)"/>
<path d="M29.4688 39.625H18.5313C17.6684 39.625 16.9688 40.3246 16.9688 41.1875V42.75C16.9688 43.6129 17.6684 44.3125 18.5313 44.3125H29.4688C30.3318 44.3125 31.0313 43.6129 31.0313 42.75V41.1875C31.0313 40.3246 30.3318 39.625 29.4688 39.625Z" fill="url(#paint6_linear_2013_500)"/>
<defs>
<linearGradient id="paint0_linear_2013_500" x1="23.9999" y1="0.5625" x2="23.9999" y2="47.4375" gradientUnits="userSpaceOnUse">
<stop stop-color="#A3FFEA"/>
<stop offset="1" stop-color="#2BB24A"/>
</linearGradient>
<linearGradient id="paint1_linear_2013_500" x1="27.9063" y1="9.9375" x2="27.9063" y2="11.5" gradientUnits="userSpaceOnUse">
<stop stop-color="#A3FFEA"/>
<stop offset="1" stop-color="#2BB24A"/>
</linearGradient>
<linearGradient id="paint2_linear_2013_500" x1="31.0313" y1="9.9375" x2="31.0313" y2="11.5" gradientUnits="userSpaceOnUse">
<stop stop-color="#A3FFEA"/>
<stop offset="1" stop-color="#2BB24A"/>
</linearGradient>
<linearGradient id="paint3_linear_2013_500" x1="29.4688" y1="8.375" x2="29.4688" y2="9.9375" gradientUnits="userSpaceOnUse">
<stop stop-color="#A3FFEA"/>
<stop offset="1" stop-color="#2BB24A"/>
</linearGradient>
<linearGradient id="paint4_linear_2013_500" x1="29.4688" y1="11.5" x2="29.4688" y2="13.0625" gradientUnits="userSpaceOnUse">
<stop stop-color="#A3FFEA"/>
<stop offset="1" stop-color="#2BB24A"/>
</linearGradient>
<linearGradient id="paint5_linear_2013_500" x1="18.5313" y1="8.375" x2="18.5313" y2="13.0625" gradientUnits="userSpaceOnUse">
<stop stop-color="#A3FFEA"/>
<stop offset="1" stop-color="#2BB24A"/>
</linearGradient>
<linearGradient id="paint6_linear_2013_500" x1="24.0001" y1="39.625" x2="24.0001" y2="44.3125" gradientUnits="userSpaceOnUse">
<stop stop-color="#A3FFEA"/>
<stop offset="1" stop-color="#2BB24A"/>
</linearGradient>
</defs>
</svg>
