<svg width="225" height="41" viewBox="0 0 225 41" fill="none" xmlns="http://www.w3.org/2000/svg">
  <path d="M13.7694 20.1086H14.1145C14.9772 20.1086 15.978 20.1086 16.8407 20.1086C17.3929 20.1086 17.8415 20.0051 18.2556 19.6603C19.2564 18.9017 19.2564 17.4879 18.2556 16.8327C17.9105 16.6258 17.5999 16.3844 17.2548 16.3844C16.047 16.281 14.9427 16.3844 13.7694 16.281V20.1086ZM13.7694 26.7638H14.1145C15.1153 26.7638 15.978 26.7638 16.9442 26.7638C17.1513 26.7638 17.3929 26.7638 17.5999 26.7638C18.9113 26.5569 19.774 25.3499 19.3599 24.0396C19.1528 23.1775 18.3591 22.7293 17.5999 22.5224C17.0478 22.4189 16.3921 22.4189 15.84 22.4189C15.1843 22.4189 14.5286 22.4189 13.7694 22.4189V26.7638ZM9.38673 13.7637C10.5946 13.7637 11.9059 13.7637 13.1137 13.7637C14.7702 13.7637 16.3921 13.7637 18.0485 13.8672C19.3599 13.8672 20.4642 14.3155 21.2234 15.3844C22.0861 16.5913 22.3277 17.9017 21.8791 19.3155C21.672 19.9706 21.2234 20.4189 20.6712 20.7293C20.4642 20.8327 20.3261 20.9362 20.1191 21.0741C20.5677 21.281 20.9818 21.5224 21.3269 21.8327C22.1896 22.5913 22.6383 23.6948 22.6383 24.9017C22.6383 26.212 22.1896 27.3155 21.1199 28.1775C20.3607 28.8327 19.4634 29.1775 18.4972 29.281C18.1521 29.281 17.8415 29.3844 17.4964 29.3844C14.8737 29.3844 12.251 29.3844 9.6283 29.3844C9.52477 29.3844 9.42124 29.3844 9.2832 29.3844V26.8672H10.491V16.3844H9.2832L9.38673 13.7637ZM208.332 24.5913C208.332 24.2465 208.332 23.9362 208.332 23.5913C208.229 22.8327 207.78 22.281 207.124 21.9362C205.917 21.1775 204.502 21.5913 203.95 22.9362C203.605 23.9362 203.605 24.7982 203.846 25.7637C204.053 26.5224 204.398 27.0741 205.157 27.4189C206.572 27.9706 208.332 26.7637 208.332 25.2465V24.5913ZM205.503 31.9017C205.054 31.7982 204.502 31.6948 204.191 31.4534C203.328 31.0051 202.776 30.3499 202.431 29.3844C202.88 29.3844 203.294 29.3844 203.743 29.3844C203.846 29.3844 203.846 29.4879 203.95 29.4879C204.709 30.7982 206.262 31.1431 207.573 30.35C208.125 30.0051 208.332 29.5913 208.436 28.9362C208.436 28.281 208.436 27.6258 208.436 26.9706C208.332 27.0741 208.229 27.3155 208.091 27.4189C206.779 28.9362 204.364 28.6258 203.259 27.0741C202.5 26.0741 202.397 25.0051 202.5 23.7982C202.5 23.0396 202.845 22.3844 203.156 21.7293C204.26 20.0741 206.883 19.7637 208.091 21.5224C208.194 21.6258 208.298 21.7293 208.436 21.9706V20.5569H210.851V21.5569H209.644V21.9017C209.644 24.212 209.644 26.4879 209.644 28.7982C209.644 30.4534 208.643 31.4189 207.124 31.7638C206.917 31.7638 206.779 31.8672 206.572 31.8672H205.468V31.9017H205.503ZM215.683 8.93616C215.683 7.17754 214.268 5.76375 212.508 5.76375C210.748 5.76375 209.333 7.17754 209.23 8.93616C209.23 10.6948 210.644 12.1086 212.404 12.212C214.268 12.1086 215.683 10.6948 215.683 8.93616ZM216.338 9.38444C216.235 10.0396 215.993 10.5913 215.579 11.1431C214.578 12.4534 212.957 13.0051 211.404 12.5568C209.885 12.1086 208.781 10.7982 208.677 9.28099C208.47 7.21202 209.885 5.34995 211.852 5.00513C211.852 5.00513 211.956 5.00513 212.059 5.00513H212.922H213.026C214.13 5.21202 214.889 5.6603 215.545 6.52237C215.993 7.07409 216.097 7.62582 216.304 8.28099V9.38444H216.338ZM140.073 21.1775C139.866 22.281 139.521 23.35 139.314 24.4534C138.969 25.9706 138.555 27.5224 138.21 29.0396C138.21 29.1431 138.21 29.2465 138.003 29.2465C137.002 29.2465 136.035 29.2465 135.035 29.2465C134.931 28.9017 134.828 28.5913 134.828 28.2465C134.068 25.5224 133.309 22.7638 132.654 20.0396C132.654 19.8327 132.55 19.6948 132.309 19.6948C132.101 19.6948 131.86 19.6948 131.549 19.6948V17.3844H136.243V19.6948H135.035C135.587 22.0051 136.139 24.281 136.691 26.5913C136.795 26.3844 136.795 26.0396 136.898 25.8327C137.45 23.1086 138.003 20.35 138.658 17.7293C138.658 17.6258 138.762 17.5224 138.865 17.5224C139.728 17.5224 140.625 17.5224 141.488 17.5224C141.695 17.5224 141.695 17.6258 141.695 17.7293C142.351 20.5568 142.903 23.4189 143.559 26.2465C143.559 26.35 143.559 26.3499 143.662 26.4534L145.18 19.6603H143.973V17.35H148.666V19.6603C148.459 19.6603 148.114 19.6603 147.907 19.6603C147.803 19.6603 147.7 19.6603 147.7 19.8672C146.94 22.8327 146.043 25.8672 145.284 28.8327C145.18 29.0396 145.18 29.1775 144.939 29.1775C144.076 29.1775 143.179 29.1775 142.316 29.1775C142.109 29.1775 142.109 29.1775 141.971 28.9706C141.315 26.4534 140.763 23.9362 140.108 21.3155C140.177 21.281 140.177 21.281 140.073 21.1775ZM124.302 16.7982C123.543 19.1086 122.887 21.281 122.232 23.5913H126.269C125.614 21.281 124.958 19.0051 124.302 16.7982ZM131.618 26.7638V29.281H128.133C127.926 28.5224 127.684 27.7637 127.477 26.9706C127.374 26.6258 127.27 26.3155 127.132 25.9706C127.132 25.8672 127.029 25.8672 126.925 25.8672C125.165 25.8672 123.44 25.8672 121.783 25.8672C121.576 25.8672 121.576 25.9706 121.576 26.0741C121.231 27.0741 121.024 28.0396 120.713 29.0396C120.713 29.1431 120.713 29.1431 120.61 29.2465H116.986V26.7293C117.332 26.7293 117.642 26.7293 117.987 26.7293C118.194 26.7293 118.194 26.7293 118.332 26.5224C119.644 22.2465 121.059 18.1086 122.37 13.8327C122.37 13.6258 122.473 13.6258 122.715 13.6258C123.819 13.6258 124.889 13.6258 126.097 13.6258C126.304 13.6258 126.304 13.7293 126.442 13.8327C127.857 18.0051 129.168 22.2465 130.618 26.4189C130.721 26.6258 130.721 26.6258 130.963 26.6258C130.963 26.7637 131.308 26.7638 131.618 26.7638ZM174.548 21.8327L179.586 21.9362C179.586 20.6258 178.585 19.6258 177.274 19.6258C175.963 19.5568 174.651 20.6258 174.548 21.8327ZM182.968 24.0396H174.548C174.651 25.1431 174.996 26.1086 175.859 26.7638C176.618 27.3155 177.516 27.4189 178.482 27.1086C179.138 26.9017 179.483 26.4534 179.793 25.7982C179.897 25.6948 179.897 25.5913 180.138 25.5913C181.001 25.5913 182.002 25.5913 182.864 25.4879C182.864 25.6948 182.761 25.8327 182.761 25.9362C182.105 28.0051 180.69 29.212 178.482 29.5568C177.17 29.7637 175.963 29.6603 174.755 29.0051C173.236 28.2465 172.236 26.9362 171.787 25.1775C171.338 23.1086 171.58 21.1431 172.891 19.3844C175.065 16.4189 179.69 16.5569 181.864 19.4879C182.519 20.6258 183.072 22.7293 182.968 24.0396ZM27.6766 21.8327L32.715 21.9362C32.8185 20.7293 31.8522 19.7637 30.5409 19.6258C29.195 19.4534 27.7801 20.5224 27.6766 21.8327ZM35.8898 24.0396H27.4696C27.4696 24.2465 27.4696 24.4879 27.5731 24.6948C27.6766 25.1431 27.7801 25.5568 28.0217 26.0051C28.5738 27.0051 29.5401 27.3155 30.6444 27.212C31.6452 27.1086 32.3008 26.5569 32.6114 25.6948C32.6114 25.5913 32.715 25.5913 32.8185 25.5913C33.6812 25.5913 34.682 25.4879 35.5447 25.4879H35.6482C35.5447 26.1431 35.3031 26.6948 34.9926 27.2465C34.1298 28.5569 32.922 29.3155 31.3691 29.5568C30.0577 29.7637 28.7464 29.6603 27.5386 29.0051C25.8821 28.1431 25.0194 26.6948 24.5708 24.9706C24.2257 23.212 24.3637 21.4879 25.33 19.9362C27.297 16.5568 32.3354 16.212 34.6475 19.4879C35.5102 20.7982 35.9588 22.3155 35.9588 23.9706C35.9933 23.9362 35.9933 23.9362 35.8898 24.0396ZM157.121 23.6948C156.361 23.7982 155.602 23.7982 154.947 24.0396C154.394 24.1431 153.946 24.2465 153.428 24.4879C152.772 24.6948 152.565 25.2465 152.565 25.9017C152.565 26.5569 153.014 27.0051 153.67 27.212C154.67 27.5568 155.844 27.212 156.637 26.4534C157.259 25.6603 157.259 24.6948 157.121 23.6948ZM157.121 21.7293C157.121 21.3844 157.017 20.9706 157.017 20.6258C156.914 19.9706 156.465 19.5224 155.809 19.4189C155.361 19.3155 154.809 19.3155 154.394 19.4189C153.635 19.6258 153.083 20.0741 153.083 20.9362C153.083 21.0396 153.083 21.1431 153.083 21.281L150.253 21.1775C150.253 20.6258 150.357 20.0741 150.702 19.6603C151.151 18.7982 151.91 18.1431 152.772 17.7982C154.532 17.1431 156.258 17.1431 158.018 17.9017C159.433 18.4534 160.088 19.6603 160.192 21.0741C160.295 22.3844 160.192 23.6948 160.192 25.1086C160.192 25.7637 160.192 26.4189 160.192 27.1775H161.193V29.4879H157.466V28.1775C157.362 28.281 157.121 28.5224 157.017 28.6258C155.257 30.1431 152.324 30.0396 150.667 28.5224C149.253 27.1086 149.253 24.2465 151.427 23.1775C152.427 22.6258 153.394 22.4189 154.498 22.3155C155.361 22.212 156.258 22.1086 157.224 21.9706C157.017 21.7293 157.017 21.7293 157.121 21.7293ZM69.1567 19.5568C69.6053 19.1086 69.9159 18.6948 70.3645 18.2465C71.3653 17.3844 72.435 17.0396 73.7464 17.2465C74.7472 17.4534 75.2648 18.0051 75.6099 18.9017C75.7134 19.1086 75.7134 19.3499 75.8169 19.5568C75.9205 19.4534 76.024 19.212 76.162 19.1086C76.7142 18.2465 77.4734 17.4534 78.5777 17.2465C79.5784 17.0396 80.5447 17.0396 81.3039 17.6948C81.9596 18.2465 82.1666 19.0051 82.3047 19.7637C82.3047 19.9706 82.3047 20.3155 82.3047 20.5224C82.3047 22.8327 82.3047 25.1086 82.3047 27.3155V27.6603H83.9611V29.0741H80.6827V28.7293C80.6827 26.0051 80.6827 23.3844 80.6827 20.6258C80.6827 20.281 80.6827 20.0741 80.5792 19.7637C80.3722 18.6603 79.5784 18.1086 78.4051 18.4534C77.5424 18.6603 76.9903 19.212 76.4381 19.9706C75.9895 20.6258 75.7824 21.3844 75.7824 22.1431C75.7824 23.9017 75.7824 25.6258 75.7824 27.3844V27.7293H77.5424V29.1431H73.9534V28.7982C73.9534 26.0741 73.9534 23.3155 73.9534 20.5913C73.9534 20.2465 73.9535 19.9362 73.8499 19.5913C73.6429 18.9362 73.1942 18.5913 72.5386 18.4879C71.5378 18.3844 70.8821 18.8327 70.2265 19.4879C69.4673 20.35 69.0186 21.2465 69.1222 22.4534C69.1222 24.1086 69.1222 25.7293 69.1222 27.4879V27.8327H70.8821V29.2465H65.8783V27.8327H67.5347V18.7637H65.8783V17.35H69.3637C69.0531 18.1086 69.0531 18.7982 69.1567 19.5568ZM49.1068 22.9362H45.4834C45.4834 22.4879 45.4834 21.9362 45.5869 21.5224H51.0738V29.1775H49.3484V26.7638C49.2449 26.8672 49.2449 26.8672 49.2449 26.9706C48.1406 28.6258 46.7257 29.4879 44.7587 29.5913C43.2403 29.5913 42.0324 29.0396 40.8246 28.0741C39.5133 26.8672 38.7541 25.3499 38.409 23.6948C37.9603 21.5224 38.2019 19.3155 39.0646 17.2465C39.7203 15.8327 40.7211 14.6258 42.136 13.9706C44.4481 12.8672 47.2778 13.3155 48.9343 15.7293C48.9343 15.8327 49.0378 15.8327 49.1413 15.9362V13.5224H50.7978V18.4534H49.0033C48.8998 17.7982 48.5547 17.2465 48.2441 16.6948C47.3814 15.4879 46.1735 14.8327 44.7587 14.8327C43.4473 14.8327 42.343 15.4879 41.5838 16.4879C40.8246 17.35 40.4795 18.4534 40.2725 19.6603C40.0654 21.3155 40.1689 22.8327 40.7211 24.35C41.0662 25.212 41.4803 26.0051 42.2395 26.6603C43.5508 27.8672 45.2073 28.0741 46.7257 27.3155C48.2441 26.6603 49.2449 24.7982 49.1068 22.9362ZM95.5217 23.281C95.5217 23.0741 95.5217 22.8327 95.5217 22.5224C95.4182 21.6603 95.1766 20.7637 94.7625 20.0051C93.8998 18.7982 92.4504 18.35 91.139 19.0051C89.9312 19.5569 88.7234 21.0741 88.965 22.7293C89.0685 23.5913 88.965 24.3844 89.172 25.2465C89.3791 26.6603 90.8284 27.8672 92.2433 28.0741C93.4511 28.1775 94.5554 27.5224 95.0731 26.4189C95.3147 25.35 95.5217 24.35 95.5217 23.281ZM87.1015 14.5224H85.5831V13.1086H88.8614V19.9017C88.965 19.7982 88.965 19.6948 89.0685 19.6948C89.4136 19.1431 89.9312 18.5913 90.4834 18.1775C92.0018 17.0741 93.8653 17.0741 95.4182 18.3844C96.5225 19.2465 97.0746 20.4534 97.3852 21.7638C97.8338 23.7293 97.5922 25.5913 96.5225 27.35C95.9703 28.212 95.2111 29.0051 94.2104 29.4189C92.6919 29.9706 90.932 29.5224 89.8277 28.3155C89.6206 27.9706 89.2755 27.6603 88.965 27.3155V29.3844H85.5831V27.9706H87.2395V14.5224H87.1015ZM60.84 23.281C60.7364 23.281 60.6329 23.281 60.6329 23.281C59.6321 23.3844 58.6659 23.6258 57.5616 23.8327C56.9059 23.9362 56.2502 24.1775 55.6981 24.5913C55.353 24.7982 55.0424 25.1431 55.0424 25.6948C54.8354 27.0051 55.8016 28.3155 57.2165 28.4189C58.7349 28.5224 60.3913 27.3155 60.7019 25.7982C60.84 24.7982 60.7019 24.0396 60.84 23.281ZM62.3584 27.9706H64.0148C64.0148 28.4189 64.1183 28.9706 64.1183 29.3844H60.7364V27.3155C60.6329 27.4189 60.6329 27.4189 60.6329 27.4189C59.7702 28.8327 58.4588 29.4879 56.8024 29.5913C55.3875 29.6948 54.2832 29.1431 53.524 27.9362C52.8683 26.8327 52.6613 25.7637 53.3169 24.5568C53.662 23.7982 54.3177 23.4534 55.0769 23.1431C56.0777 22.6948 57.1475 22.4879 58.2518 22.281C59.011 22.1775 59.9082 22.0741 60.7709 21.9362C60.7709 21.3844 60.7709 20.7293 60.6674 20.1775C60.4604 19.3155 59.8047 18.8672 59.011 18.6603C58.3553 18.4534 57.5961 18.5569 56.9404 18.6603C56.0777 18.8672 55.5255 19.5224 55.284 20.3155C55.1804 20.5224 55.1804 20.6603 54.8354 20.6603C54.2832 20.6603 53.8346 20.6603 53.3169 20.6603C53.662 19.2465 54.3177 18.2465 55.6291 17.5913C57.1475 16.9362 58.7004 16.9362 60.2188 17.5913C61.4266 18.1431 62.0823 19.1086 62.2893 20.4189C62.2893 20.7637 62.2893 20.9706 62.2893 21.281C62.2893 23.3499 62.2893 25.3155 62.2893 27.4189L62.3584 27.9706ZM106.668 22.3844H113.121C113.121 21.3844 112.776 20.6258 112.362 19.8672C111.707 19.0051 110.947 18.5568 109.843 18.7637C107.772 19.0051 106.806 20.5224 106.668 22.3844ZM115.123 23.6948H106.599C106.703 24.1431 106.703 24.4534 106.806 24.7982C106.91 25.4534 107.151 26.1086 107.565 26.7638C108.428 28.0741 110.395 28.5224 111.603 27.7637C112.155 27.4189 112.466 26.9017 112.811 26.35C112.914 26.1431 113.018 26.0051 113.259 26.0051C113.812 26.0051 114.364 26.0051 114.916 26.0051C114.812 26.212 114.812 26.4534 114.709 26.6603C113.95 28.4189 111.879 29.6258 109.878 29.3844C107.151 29.1775 105.288 27.3155 104.839 24.5568C104.494 22.7982 104.736 21.0741 105.702 19.5224C106.461 18.212 107.669 17.35 109.187 17.1086C111.361 16.7638 113.363 17.8672 114.329 19.8327C114.881 20.9362 115.088 22.1431 115.088 23.4534C115.123 23.6948 115.123 23.6948 115.123 23.6948ZM166.645 26.9706H168.06V29.281H162.573V26.9706H163.781V19.7637H162.573V17.4534H166.611V19.212C166.714 19.1086 166.818 18.8672 166.818 18.7637C167.266 18.1086 167.818 17.4534 168.681 17.35C169.337 17.1431 170.096 17.2465 170.752 17.35L170.855 17.4534C170.855 18.3155 170.855 19.212 170.855 20.0741C170.51 20.0741 170.2 19.9706 169.855 19.9706C168.992 19.8672 168.095 20.0741 167.439 20.6258C166.887 21.0741 166.68 21.7293 166.576 22.3844C166.576 23.7982 166.576 25.212 166.576 26.7638C166.542 26.8672 166.542 26.8672 166.645 26.9706ZM100.008 14.4189H98.3515V13.1086H101.733V27.8672H103.252V29.281H98.3515V27.8672H100.008V14.4189ZM188.559 25.0051C188.559 25.6603 188.662 26.3155 188.904 26.9706C189.352 27.8327 190.008 28.3844 190.974 28.3844C191.94 28.3844 192.734 27.9362 193.148 27.0741C193.355 26.5224 193.493 26.0741 193.597 25.4189C193.7 24.5568 193.597 23.6603 193.148 22.9017C192.7 22.0396 191.94 21.5913 190.974 21.5913C190.008 21.5913 189.456 22.1431 189.007 22.9017C188.559 23.5913 188.559 24.2465 188.559 25.0051ZM194.874 24.7982C194.874 25.9017 194.667 26.8672 194.114 27.6258C193.252 28.9362 192.044 29.3844 190.491 29.281C189.076 29.1775 188.075 28.281 187.523 26.9706C186.971 25.5568 186.868 24.0051 187.523 22.5913C188.179 21.1775 189.387 20.4189 191.009 20.4189C192.631 20.4189 193.735 21.1775 194.391 22.5913C194.77 23.3844 194.874 24.1431 194.874 24.7982ZM199.705 29.1775H195.874V28.1775H197.082V21.7293H195.874V20.7293H198.394V22.4879C198.842 21.7293 199.394 20.9706 200.257 20.6258C200.706 20.5224 201.465 20.5224 201.914 20.6258V21.8327C201.707 21.8327 201.465 21.8327 201.258 21.7293C199.739 21.6258 198.428 22.7293 198.428 24.2465C198.428 25.4534 198.428 26.7638 198.428 27.9706V28.0741H199.843L199.705 29.1775ZM184.383 27.7637H185.798V29.1775H184.383V27.7637ZM211.507 7.17754V8.48788C211.956 8.48788 212.37 8.48788 212.818 8.48788C212.922 8.48788 213.026 8.48788 213.164 8.38443C213.509 8.28098 213.612 8.03961 213.509 7.62581C213.509 7.28099 213.302 7.07409 212.957 7.07409C212.508 7.17754 212.059 7.17754 211.507 7.17754ZM213.371 8.83271C213.819 8.93616 213.923 9.28098 213.923 9.59133C213.923 9.90167 214.026 10.35 214.026 10.6948C213.371 10.6948 213.474 10.7982 213.371 10.1431C213.371 9.93616 213.371 9.69478 213.267 9.48789C213.164 9.14306 213.06 8.93616 212.611 8.93616C212.163 8.93616 211.749 8.93616 211.3 8.93616V10.5913H210.748V6.6603C210.851 6.6603 210.955 6.6603 211.197 6.6603C211.749 6.6603 212.301 6.6603 212.853 6.6603C213.405 6.6603 213.716 7.00513 213.854 7.41892C214.164 8.07409 213.923 8.48788 213.371 8.83271Z" fill="white" />
</svg>