<svg width="60" height="60" viewBox="0 0 60 60" fill="none" xmlns="http://www.w3.org/2000/svg">
<path d="M35.4235 10.2808H43.6505C44.3442 10.2841 45.1526 10.1092 45.6882 10.6662C46.4753 11.4849 45.7299 12.2213 45.1221 12.8371C43.5724 14.4067 41.9433 16.0436 40.341 17.5418V25.9212C39.3051 26.9716 38.172 28.0463 37.1076 29.0704C36.5997 29.559 35.8206 30.2212 35.4235 30.7665C34.1614 29.7745 32.9939 28.0503 31.7903 27.2323C29.7067 25.8162 26.958 26.6654 25.6005 28.6552C25.344 29.0593 25.1602 29.453 25.0304 29.9138L22.9222 29.9167C22.4191 29.9175 21.713 30.0209 21.2644 29.7319C20.8436 29.4607 20.7171 28.7296 20.9866 28.3174C21.2784 27.8709 22.1398 27.1632 22.5547 26.7481C24.5263 24.7755 26.5303 22.8349 28.4866 20.8465C30.0301 19.2777 30.2855 19.8414 29.862 17.7235L29.5437 16.0681C29.8716 15.6722 30.262 15.3159 30.6268 14.9536L34.4081 11.2271C34.7338 10.9029 35.0547 10.5563 35.4235 10.2808Z" fill="#A3FFEA"/>
<path d="M19.3743 42.4659C18.735 42.6588 16.2867 43.0653 16.0814 43.2008C15.7356 43.4288 15.8449 44.2406 15.8461 44.5843L15.8522 46.8437C15.8554 48.4046 15.9477 49.0271 14.3175 48.3698C10.2345 46.7236 7.06698 42.9818 6.82591 38.4685C6.78307 37.6665 6.81439 36.8496 6.81439 36.046L6.81368 28.2036C6.81334 27.3196 6.79712 26.4358 6.87471 25.5541C7.53549 18.0456 13.4441 11.686 20.8806 10.4884C21.7194 10.3533 22.5627 10.3236 23.4097 10.281H31.5942C30.4114 11.3992 29.2653 12.5709 28.1151 13.7231C27.7563 14.0825 26.6901 14.8821 26.6305 15.3949C26.5743 15.8769 26.989 17.765 27.1061 18.3493C26.8506 18.5393 26.6158 18.8019 26.3895 19.0268L20.0235 25.3601C19.5054 25.871 18.8257 26.4146 18.4684 27.0515C17.6471 28.5155 17.9505 30.472 19.1229 31.6569C20.2251 32.7709 21.3685 32.6825 22.8048 32.6781L25.1365 32.6761C25.4864 33.6601 26.1819 34.2747 26.9043 34.9819L28.1777 36.2484C25.5354 39.1209 23.2279 41.2584 19.3743 42.4659Z" fill="#A3FFEA"/>
<path d="M39.3493 42.048C36.6385 40.9971 35.2899 39.6929 33.3613 37.7186L29.0983 33.4249C28.7588 33.0848 28.3866 32.7569 28.0757 32.3915C26.5937 30.6494 28.7665 28.2192 30.4512 29.6772C30.8459 30.0187 31.206 30.4324 31.5753 30.8045L33.9469 33.18C35.7137 34.9225 35.7636 34.3195 37.4227 32.6555C38.8165 31.2577 40.2413 29.8933 41.6816 28.5437C43.206 27.1153 43.0363 27.5275 43.0362 25.3236L43.0409 21.5348C43.0407 20.9403 42.9809 20.3413 43.0379 19.748C43.5543 19.914 45.1345 21.6992 45.5935 22.1557L51.9879 28.4757C53.138 29.623 53.2517 29.3518 53.2499 31.0421V36.4025C53.2506 37.055 53.2731 37.7168 53.234 38.3676C52.9599 42.9372 49.7989 46.7742 45.5855 48.3264C45.0133 48.5373 44.5333 48.7787 44.1013 48.2225C44.0659 47.3936 44.2153 43.8689 44.0099 43.4393C43.7382 42.8713 42.5208 42.9397 41.9993 42.8402C41.0806 42.665 40.2222 42.3791 39.3493 42.048Z" fill="#A3FFEA"/>
</svg>
