<svg width="18" height="16" viewBox="0 0 18 16" fill="none" xmlns="http://www.w3.org/2000/svg">
  <path d="M9.34435 13.4012L13.285 15.8974C13.7887 16.2162 14.4137 15.7418 14.2644 15.1537L13.1262 10.6756C13.0941 10.5508 13.0978 10.4195 13.1369 10.2968C13.1761 10.1741 13.249 10.0649 13.3475 9.98181L16.8812 7.04118C17.345 6.65493 17.1062 5.88431 16.5094 5.84556L11.895 5.54556C11.7707 5.53675 11.6516 5.49283 11.5513 5.41891C11.4511 5.345 11.3739 5.24414 11.3287 5.12806L9.60748 0.794309C9.56061 0.671146 9.47741 0.565138 9.36892 0.49034C9.26042 0.415543 9.13176 0.375488 8.99998 0.375488C8.8682 0.375488 8.73953 0.415543 8.63104 0.49034C8.52254 0.565138 8.43935 0.671146 8.39248 0.794309L6.67123 5.12806C6.62617 5.24425 6.54902 5.34525 6.44877 5.41928C6.34852 5.49331 6.22929 5.53732 6.10498 5.54618L1.4906 5.84618C0.894355 5.88431 0.654355 6.65493 1.11873 7.04118L4.65248 9.98243C4.7508 10.0655 4.82371 10.1746 4.86284 10.2972C4.90198 10.4198 4.90575 10.5509 4.87373 10.6756L3.81873 14.8287C3.63935 15.5343 4.38998 16.1037 4.99373 15.7206L8.65623 13.4012C8.75917 13.3357 8.87862 13.301 9.0006 13.301C9.12259 13.301 9.24204 13.3357 9.34498 13.4012H9.34435Z" fill="#28A745" />
</svg>