<svg width="52" height="58" viewBox="0 0 52 58" fill="none" xmlns="http://www.w3.org/2000/svg">
<path d="M26.3296 0.355489C28.2788 0.144618 30.6387 0.723762 32.2758 1.77997C33.7906 2.75744 34.9463 4.18927 35.3172 5.97777C35.5575 7.14432 35.4759 8.3543 35.0812 9.47805C33.2319 14.8289 25.624 14.57 23.1879 18.3439C22.6827 19.1264 22.4202 20.0949 22.6222 21.0191C22.7668 21.6811 23.181 22.2284 23.7512 22.5871C24.7608 23.2221 26.1202 23.3136 27.2599 23.0413C28.2272 22.8102 29.1309 22.2921 29.6554 21.4231C29.9848 20.8775 30.1726 20.1585 29.9989 19.5315C29.908 19.2029 29.7116 18.9369 29.4111 18.7714C28.8737 18.4757 28.2971 18.5919 27.7466 18.7616C27.78 18.6377 27.8193 18.5199 27.8715 18.4025C28.2269 17.6031 28.9889 16.9905 29.7966 16.6898C30.772 16.3265 32.0219 16.2837 32.9752 16.7361C33.5939 17.0282 34.0689 17.5572 34.2928 18.2037C34.6955 19.3596 34.4005 20.7849 33.8831 21.8552C32.8236 24.0472 30.6785 25.5307 28.429 26.3025C27.9173 26.4473 27.4145 26.5737 26.8888 26.6574C24.6487 27.014 22.0493 26.6387 20.1921 25.2766C18.9938 24.398 18.1328 23.1225 17.914 21.6395C17.6933 20.1444 17.9171 18.6669 18.6582 17.3444C20.353 14.3204 23.9167 13.1248 26.831 11.6233C27.9077 11.0687 29.0495 10.4336 29.7793 9.43972C30.3376 8.6793 30.6927 7.70778 30.5352 6.7589C30.4099 6.00489 30.0608 5.39384 29.4323 4.95139C28.5279 4.31483 27.3034 4.15194 26.2325 4.34883C24.3296 4.69856 22.8035 6.04206 22.5144 7.9994C22.3971 8.79366 22.612 9.66852 22.1049 10.3663C21.8093 10.7731 21.3388 10.9369 20.8595 11.0069C20.2037 11.1028 19.4417 10.9936 18.9079 10.5799C18.438 10.2158 18.2116 9.68938 18.1517 9.11078C17.951 7.17523 18.6751 5.08614 19.892 3.59274C21.5178 1.5973 23.8123 0.60685 26.3296 0.355489Z" fill="#28A745"/>
<path d="M0.375772 32.2596L3.37449 32.2531C4.34964 32.2516 5.36776 32.1866 6.32259 32.4148C7.18346 32.6205 8.05986 33.098 8.52495 33.8765C8.8763 34.4645 8.95875 35.2255 8.79068 35.8861C8.55547 36.8112 7.88021 37.2493 7.1034 37.7027C7.32131 37.7362 7.53002 37.7794 7.73625 37.8587C8.35526 38.0909 8.85435 38.5631 9.1204 39.1684C9.43597 39.8977 9.35808 40.6833 9.07535 41.4067C8.93016 41.6807 8.76449 41.9172 8.54543 42.1375C7.15881 43.5321 5.14869 43.3858 3.34899 43.3832L0.375 43.3824L0.375772 32.2596ZM6.35898 41.0083C6.61343 40.7125 6.7883 40.4087 6.75777 40.0027C6.73197 39.6595 6.59087 39.3422 6.32112 39.1225C5.60165 38.5368 3.68419 38.7643 2.76474 38.7366L2.76359 41.446L4.06289 41.4472C4.8672 41.4536 5.6834 41.5294 6.35898 41.0083ZM2.76065 36.8144C3.67043 36.8183 5.19552 36.9998 5.93593 36.4063C6.18466 36.1152 6.32831 35.8066 6.29686 35.4156C6.27398 35.1307 6.16001 34.8799 5.93523 34.6985C5.2816 34.1709 3.57284 34.3371 2.76389 34.341L2.76065 36.8144Z" fill="white"/>
<path d="M9.31582 46.0223C10.1893 45.9146 11.2426 46.0689 12.0677 46.3569C13.3345 46.7992 14.2978 47.6171 14.8777 48.8261C14.1742 49.1932 13.4531 49.5274 12.7416 49.8789C12.6184 49.6208 12.4593 49.397 12.2676 49.186C11.6629 48.5203 10.9179 48.1933 10.0233 48.1501C9.04522 48.1029 8.0771 48.3708 7.34434 49.0409C6.63554 49.689 6.28512 50.6699 6.24625 51.6139C6.20699 52.5687 6.49498 53.5608 7.1524 54.2697C7.83099 55.0015 8.83079 55.3701 9.81514 55.397C10.6861 55.4208 11.6364 55.2025 12.2746 54.5728C12.7429 54.1106 12.6659 53.5697 12.6607 52.97C11.6498 52.9381 10.631 52.9624 9.61926 52.9618C9.65372 52.3664 9.62451 51.7538 9.62451 51.1565L9.6222 50.801L14.8973 50.7964C14.8863 51.7447 14.8984 52.694 14.8995 53.6423C14.9 54.1283 14.9409 54.6502 14.8652 55.1304C14.8301 55.3532 14.7466 55.5437 14.6102 55.7232C13.793 56.7983 12.2231 57.4146 10.9234 57.569C9.13076 57.7821 7.2775 57.4381 5.84197 56.2992C4.70316 55.3998 3.96785 54.0852 3.79747 52.6441C3.61472 51.0319 3.98817 49.4171 5.01749 48.1463C6.12316 46.7814 7.61085 46.1968 9.31582 46.0223Z" fill="white"/>
<path d="M29.048 49.3392C29.4726 49.3082 29.9279 49.3122 30.3431 49.4133C31.0922 49.5956 31.5339 50.0319 31.9307 50.6738C32.0653 50.5164 32.1991 50.3554 32.3439 50.2074C32.9429 49.5954 33.7345 49.3293 34.5792 49.3256C35.428 49.3218 36.264 49.5065 36.8811 50.1277C37.2642 50.5134 37.5007 51.0151 37.6272 51.5392C37.8365 52.4056 37.7667 53.3703 37.766 54.2559L37.7613 57.4394C36.992 57.4322 36.2226 57.4325 35.4533 57.4403C35.4643 56.4957 35.457 55.5499 35.4576 54.6051C35.4582 53.8768 35.5278 53.0566 35.3661 52.3444C35.2987 52.0473 35.1696 51.7761 34.9507 51.5605C34.6723 51.2865 34.3198 51.2127 33.9419 51.2148C33.5578 51.217 33.1844 51.3448 32.9126 51.6228C32.705 51.8351 32.5802 52.1146 32.5138 52.401C32.335 53.1726 32.4357 54.9529 32.4379 55.8296L32.4404 57.4391C31.6555 57.4338 30.8705 57.4335 30.0856 57.4386C30.1047 56.4068 30.0922 55.3719 30.0942 54.3398C30.0954 53.721 30.1531 53.0443 30.0588 52.4354C30.011 52.1262 29.9295 51.811 29.7084 51.5778C29.4655 51.3214 29.1154 51.2167 28.7701 51.2082C28.3539 51.1982 27.9333 51.3031 27.6339 51.6072C27.4292 51.8151 27.3241 52.0693 27.2661 52.3512C27.1252 53.0364 27.1855 53.7936 27.1864 54.4929L27.1877 57.4376C26.4376 57.4317 25.6875 57.4324 24.9376 57.4398C25.0012 54.7681 24.943 52.0816 24.9441 49.4081L27.1865 49.4067C27.1847 49.7208 27.1844 50.0348 27.1858 50.3489C27.7379 49.7692 28.2569 49.4782 29.048 49.3392Z" fill="white"/>
<path d="M34.9136 32.2577L37.2286 32.2522C37.2192 33.6134 37.2175 34.9747 37.2233 36.3359C37.9188 35.6271 38.5721 35.2054 39.5933 35.1917C40.3971 35.181 41.2702 35.4184 41.8555 35.9926C42.2332 36.3634 42.4729 36.8561 42.5922 37.3678C42.7914 38.2219 42.7142 39.1844 42.7133 40.0563L42.7146 43.3792L40.3979 43.3832L40.3998 40.5397C40.401 39.6726 40.5843 38.2928 39.9865 37.5985C39.7116 37.2792 39.325 37.1277 38.9098 37.1103C38.4692 37.0918 38.029 37.2294 37.709 37.5399C37.4927 37.7497 37.3648 38.0108 37.2966 38.3016C37.1401 38.9686 37.2201 39.7537 37.2211 40.4374L37.2265 43.3814L34.9087 43.3811L34.9136 32.2577Z" fill="white"/>
<path d="M47.2726 35.2428C47.2838 35.2411 47.295 35.239 47.3063 35.2377C48.2873 35.1324 49.3864 35.3369 50.1854 35.9377C50.6824 36.3043 51.0511 36.8184 51.2389 37.4067C51.498 38.1988 51.4482 39.054 51.4472 39.8758C51.4458 41.0371 51.384 42.2262 51.5402 43.3787L49.459 43.3786C49.4398 43.074 49.3879 42.7686 49.3463 42.4662C49.2452 42.5837 49.1439 42.7024 49.0359 42.8137C48.5023 43.3636 47.7234 43.6298 46.969 43.6289C46.1445 43.6279 45.4459 43.3848 44.857 42.7998C44.3849 42.2451 44.2061 41.6592 44.2668 40.9395C44.3225 40.28 44.6596 39.7136 45.1652 39.2998C46.2147 38.4406 47.8558 38.2827 49.1601 38.4194C49.136 38.1915 49.103 37.9847 48.9922 37.7805C48.8286 37.479 48.562 37.288 48.2312 37.2061C47.2203 36.9556 46.2982 37.4516 45.4757 37.9686C45.154 37.5036 44.8944 36.9844 44.6355 36.4826C45.5413 35.7836 46.0961 35.3633 47.2726 35.2428ZM46.9911 41.7594C47.501 41.8727 48.0184 41.8309 48.4662 41.5383C48.846 41.2903 49.0955 40.8893 49.1796 40.4459C49.2159 40.2545 49.2185 40.0584 49.2193 39.8643C49.1005 39.8688 48.9726 39.865 48.8553 39.8807C48.183 39.9186 47.2328 39.9747 46.7431 40.5053C46.5849 40.6736 46.5043 40.9003 46.5206 41.1307C46.537 41.3158 46.6253 41.4872 46.7667 41.6078C46.8341 41.6663 46.9136 41.7155 46.9911 41.7594Z" fill="white"/>
<path d="M14.3953 35.2062C14.6401 35.2127 14.8905 35.2284 15.1324 35.268C16.0575 35.4143 16.886 35.9233 17.4345 36.6824C18.1198 37.6414 18.3333 38.8358 18.1358 39.987L12.6764 39.9831C12.7609 40.4325 12.876 40.8659 13.1811 41.2214C13.4712 41.5595 13.8627 41.7315 14.3031 41.7649C15.1278 41.8273 15.6789 41.5071 16.2815 40.9863C16.7019 41.1957 17.1087 41.4435 17.5171 41.676C17.6445 41.7464 17.7767 41.8099 17.9063 41.8762C17.7842 42.0714 17.6616 42.2627 17.5083 42.4352C16.8221 43.2077 15.8192 43.5858 14.8055 43.6447C13.6633 43.711 12.5295 43.432 11.6643 42.654C10.8005 41.8772 10.4071 40.8519 10.3503 39.708C10.2917 38.5298 10.6328 37.3251 11.4389 36.4441C12.2477 35.5602 13.2272 35.2541 14.3953 35.2062ZM14.6754 38.4604C15.1118 38.4631 15.552 38.455 15.9879 38.4715C15.8713 37.999 15.7213 37.5418 15.2822 37.2691C14.9176 37.0426 14.5027 37.0326 14.0882 37.0522C13.6323 37.1503 13.2543 37.3172 12.991 37.724C12.8397 37.9577 12.7552 38.2312 12.6937 38.5011C13.3329 38.4079 14.0301 38.4573 14.6754 38.4604Z" fill="white"/>
<path d="M19.2451 49.3398C20.1508 49.2933 21.0906 49.4426 21.8557 49.9599C23.2101 50.8756 23.2466 52.3922 23.246 53.8697C23.2455 55.0079 23.1401 56.2704 23.3577 57.3891C23.3605 57.4038 23.3638 57.4186 23.3668 57.4333L21.3165 57.4427C21.2629 57.1481 21.1959 56.8557 21.1329 56.563C21.0817 56.6237 21.0294 56.6836 20.9761 56.7428C20.4519 57.3223 19.7322 57.6489 18.9542 57.6824C18.0955 57.7195 17.3337 57.4843 16.6939 56.9038C16.3336 56.5006 16.11 56.0826 16.0649 55.5352C16.0055 54.8806 16.2135 54.2298 16.6415 53.7311C17.7559 52.442 19.4793 52.5734 20.9848 52.4644C20.9423 52.2306 20.908 52.0078 20.7785 51.8028C20.6116 51.539 20.361 51.3722 20.0563 51.3081C19.0989 51.1066 18.1693 51.613 17.3888 52.099C17.09 51.6143 16.8331 51.0966 16.5716 50.5911C17.3973 49.8195 18.1339 49.5079 19.2451 49.3398ZM19.1715 55.9082C19.703 55.8939 20.2195 55.7561 20.593 55.351C20.9685 54.9437 21.0129 54.4933 21.0078 53.9691C20.7483 53.9701 20.477 53.9551 20.2192 53.9788C19.6427 54.0561 18.9067 54.1687 18.5258 54.6621C18.3898 54.8384 18.3026 55.0841 18.3388 55.3081C18.3687 55.4938 18.4717 55.628 18.6234 55.7335C18.8013 55.8574 18.958 55.8932 19.1715 55.9082Z" fill="white"/>
<path d="M42.5363 49.339C42.7739 49.3213 43.0246 49.3204 43.263 49.3267C44.2141 49.3521 45.1945 49.7436 45.8465 50.4463C46.8144 51.4899 46.9243 52.6876 46.8773 54.0442L41.3833 54.0462C41.4697 54.4944 41.5758 54.9019 41.8818 55.257C42.2003 55.6266 42.6414 55.8013 43.1215 55.8265C43.8861 55.8665 44.3861 55.5411 44.9283 55.0461C45.1936 55.2013 45.4601 55.3546 45.7278 55.5059C45.9872 55.658 46.2493 55.8056 46.5139 55.9485C46.4467 56.0775 46.3721 56.2025 46.2905 56.3228C45.8219 57.021 44.9577 57.4542 44.1499 57.6065C42.9905 57.825 41.7269 57.6388 40.7452 56.9646C39.8852 56.3739 39.3294 55.4311 39.1508 54.4101C38.9392 53.2012 39.1701 51.8732 39.8935 50.8684C40.5475 49.96 41.4524 49.5204 42.5363 49.339ZM41.4059 52.539C42.0369 52.5088 42.6664 52.5076 43.2979 52.5082C43.7721 52.512 44.2475 52.5226 44.7215 52.5147C44.5582 52.0085 44.3656 51.5383 43.865 51.2768C43.539 51.1065 43.1906 51.095 42.8315 51.1135C42.3502 51.2218 41.9801 51.3924 41.7073 51.8267C41.5677 52.0489 41.4857 52.2908 41.4059 52.539Z" fill="white"/>
<path d="M22.4177 32.4827C22.4697 32.4789 22.4357 32.4789 22.5187 32.4969C22.6202 32.9035 22.5482 34.7988 22.5472 35.351L25.105 35.3396C25.0935 35.9844 25.102 36.6307 25.1013 37.2756L22.5444 37.2794C22.5432 38.0669 22.4166 40.4802 22.7013 41.0675C22.829 41.331 23.0426 41.5352 23.3256 41.6213C23.862 41.7845 24.5263 41.5666 24.9981 41.3065C25.0853 41.8532 25.3659 42.5168 25.3099 43.0641C25.1482 43.2786 24.7908 43.3634 24.5482 43.452C24.1383 43.568 23.7146 43.6281 23.2887 43.6305C22.4567 43.641 21.6328 43.4496 21.025 42.8489C20.0685 41.9035 20.1506 40.4883 20.1519 39.2505L20.1551 37.2733L18.8434 37.2723L18.842 35.3486L20.1544 35.3494V33.6675C20.8512 33.2279 21.6652 32.8148 22.4177 32.4827Z" fill="white"/>
<path d="M29.7624 35.2411C30.2192 35.1552 30.7854 35.2099 31.2371 35.3073C32.3361 35.5441 33.0515 36.1896 33.6462 37.1116C33.16 37.5152 32.5424 37.8156 31.9938 38.1305C31.9255 38.0195 31.8555 37.9055 31.7724 37.8048C31.4723 37.4413 31.0614 37.1925 30.5867 37.1525C30.0745 37.1094 29.5096 37.2715 29.1276 37.6194C28.6881 38.0198 28.4987 38.633 28.4692 39.2126C28.4336 39.9106 28.6323 40.6548 29.1215 41.171C29.4875 41.5544 29.9947 41.771 30.5247 41.77C31.2821 41.7748 31.7581 41.4194 32.2636 40.9107L32.8685 41.2591C33.2163 41.4511 33.5531 41.6664 33.8927 41.8726C33.825 41.9805 33.7544 42.0866 33.681 42.1907C33.128 42.962 32.2157 43.4516 31.2891 43.5936C30.0906 43.7771 28.7867 43.6151 27.7954 42.8759C26.9459 42.2424 26.3755 41.2306 26.2245 40.1856C26.0533 39.0015 26.3112 37.7108 27.0461 36.7513C27.7203 35.8711 28.6781 35.3849 29.7624 35.2411Z" fill="white"/>
</svg>
